<svg xmlns="http://www.w3.org/2000/svg" xmlns:xlink="http://www.w3.org/1999/xlink" version="1.1" width="885.1" height="556.9" viewBox="14.9 97.4 885.1 556.9"><g><g transform="translate(15,150)"><g><g>
<path d="M210,0H0v270h210V0L210,0z" stroke="#000000" stroke-dasharray="none" fill="#FFFFFF"/>
<rect x="9.2" y="12.3" width="191.6" height="245.4" fill="none"/>
<circle fill="none" cx="105" cy="0" r="0.1"/>
<circle fill="none" cx="157" cy="0" r="0.1"/>
<circle fill="none" cx="210" cy="68.1" r="0.1"/>
<circle fill="none" cx="210" cy="135" r="0.1"/>
<circle fill="none" cx="210" cy="201.9" r="0.1"/>
<circle fill="none" cx="157" cy="270" r="0.1"/>
<circle fill="none" cx="105" cy="270" r="0.1"/>
<circle fill="none" cx="53" cy="270" r="0.1"/>
<circle fill="none" cx="0" cy="201.9" r="0.1"/>
<circle fill="none" cx="0" cy="135" r="0.1"/>
<circle fill="none" cx="0" cy="68.1" r="0.1"/>
<circle fill="none" cx="53" cy="0" r="0.1"/>
</g></g><rect stroke="none" stroke-width="0" fill="#FFFFFF" x="0" y="0" width="0" height="0" transform="translate(209.9,134.9)"/><path stroke="#000000" fill="none" d=""/><text font-family="OpenSansCondensedLight" font-size="14pt" fill="black" transform="translate(209.9,134.9)"/><rect stroke-width="0" fill="none" width="630.6" transform="translate(-210.3,280.1)"/><text font-family="OpenSansCondensedLight" font-size="14pt" fill="black" transform="translate(-210.3,280.1)" text-anchor="middle"><tspan x="315.3" y="16.8">CLIENT 102</tspan></text><path stroke="#000000" fill="none" transform="translate(-210.3,280.1)" d="M 336.8 19 364.8 19"/></g><g transform="translate(37.5,349.5)"><g><g>
<path d="M165,0H0v60h165V0L165,0z" stroke="#000000" stroke-dasharray="none" fill="#FFFFFF"/>
<rect x="7.2" y="2.7" width="150.6" height="54.5" fill="none"/>
<circle fill="none" cx="82.5" cy="0" r="0.1"/>
<circle fill="none" cx="123.4" cy="0" r="0.1"/>
<circle fill="none" cx="165" cy="15.1" r="0.1"/>
<circle fill="none" cx="165" cy="30" r="0.1"/>
<circle fill="none" cx="165" cy="44.9" r="0.1"/>
<circle fill="none" cx="123.4" cy="60" r="0.1"/>
<circle fill="none" cx="82.5" cy="60" r="0.1"/>
<circle fill="none" cx="41.6" cy="60" r="0.1"/>
<circle fill="none" cx="0" cy="44.9" r="0.1"/>
<circle fill="none" cx="0" cy="30" r="0.1"/>
<circle fill="none" cx="0" cy="15.1" r="0.1"/>
<circle fill="none" cx="41.6" cy="0" r="0.1"/>
</g></g><rect stroke="none" stroke-width="0" fill="#FFFFFF" x="0" y="0" width="0" height="0" transform="translate(164.9,29.9)"/><path stroke="#000000" fill="none" d=""/><text font-family="OpenSansCondensedLight" font-size="14pt" fill="black" transform="translate(164.9,29.9)"/><rect stroke-width="0" fill="none" width="150.6" height="54.5" transform="translate(7.2,2.7)"/><text font-family="OpenSansCondensedLight" font-size="14pt" fill="black" transform="translate(7.2,2.7)" text-anchor="middle"><tspan x="75.3" y="23.1">CLIENT AGENT</tspan><tspan x="75.3" y="44.1">402</tspan></text><path stroke="#000000" fill="none" transform="translate(7.2,2.7)" d="M 61.3 46 89.3 46"/></g><g transform="translate(37.5,180)"><g><g>
<path d="M165,0H0v150h165V0L165,0z" stroke="#000000" stroke-dasharray="5,5" fill="#FFFFFF"/>
<rect x="7.2" y="6.8" width="150.6" height="136.3" fill="none"/>
<circle fill="none" cx="82.5" cy="0" r="0.1"/>
<circle fill="none" cx="123.4" cy="0" r="0.1"/>
<circle fill="none" cx="165" cy="37.8" r="0.1"/>
<circle fill="none" cx="165" cy="75" r="0.1"/>
<circle fill="none" cx="165" cy="112.2" r="0.1"/>
<circle fill="none" cx="123.4" cy="150" r="0.1"/>
<circle fill="none" cx="82.5" cy="150" r="0.1"/>
<circle fill="none" cx="41.6" cy="150" r="0.1"/>
<circle fill="none" cx="0" cy="112.2" r="0.1"/>
<circle fill="none" cx="0" cy="75" r="0.1"/>
<circle fill="none" cx="0" cy="37.8" r="0.1"/>
<circle fill="none" cx="41.6" cy="0" r="0.1"/>
</g></g><rect stroke="none" stroke-width="0" fill="#FFFFFF" x="0" y="0" width="0" height="0" transform="translate(164.9,74.9)"/><path stroke="#000000" fill="none" d=""/><text font-family="OpenSansCondensedLight" font-size="14pt" fill="black" transform="translate(164.9,74.9)"/><rect stroke-width="0" fill="none" width="150.6" height="136.3" transform="translate(7.2,6.8)"/><text font-family="OpenSansCondensedLight" font-size="14pt" fill="black" transform="translate(7.2,6.8)" text-anchor="middle"><tspan x="75.3" y="16.8">COMPUTING</tspan><tspan x="75.3" y="37.8">ENVIRONMENT</tspan><tspan x="75.3" y="58.8">404</tspan></text><path stroke="#000000" fill="none" transform="translate(7.2,6.8)" d="M 61.3 61 89.3 61"/></g><g transform="translate(60,240)"><g><g>
<path d="M120,0H0v30h120V0L120,0z" stroke="#000000" stroke-dasharray="none" fill="#FFFFFF"/>
<rect x="5.2" y="1.4" width="109.5" height="27.3" fill="none"/>
<circle fill="none" cx="60" cy="0" r="0.1"/>
<circle fill="none" cx="89.7" cy="0" r="0.1"/>
<circle fill="none" cx="120" cy="7.6" r="0.1"/>
<circle fill="none" cx="120" cy="15" r="0.1"/>
<circle fill="none" cx="120" cy="22.4" r="0.1"/>
<circle fill="none" cx="89.7" cy="30" r="0.1"/>
<circle fill="none" cx="60" cy="30" r="0.1"/>
<circle fill="none" cx="30.3" cy="30" r="0.1"/>
<circle fill="none" cx="0" cy="22.4" r="0.1"/>
<circle fill="none" cx="0" cy="15" r="0.1"/>
<circle fill="none" cx="0" cy="7.6" r="0.1"/>
<circle fill="none" cx="30.3" cy="0" r="0.1"/>
</g></g><rect stroke="none" stroke-width="0" fill="#FFFFFF" x="0" y="0" width="0" height="0" transform="translate(119.9,14.9)"/><path stroke="#000000" fill="none" d=""/><text font-family="OpenSansCondensedLight" font-size="14pt" fill="black" transform="translate(119.9,14.9)"/><rect stroke-width="0" fill="none" width="109.5" height="27.3" transform="translate(5.2,1.4)"/><text font-family="OpenSansCondensedLight" font-size="14pt" fill="black" transform="translate(5.2,1.4)" text-anchor="middle"><tspan x="54.8" y="19.9">APPLICATION</tspan></text><path stroke="#000000" fill="none" transform="translate(5.2,1.4)" d="M 0 0"/></g><g transform="translate(60,280)"><g><g>
<path d="M120,0H0v30h120V0L120,0z" stroke="#000000" stroke-dasharray="none" fill="#FFFFFF"/>
<rect x="5.2" y="1.4" width="109.5" height="27.3" fill="none"/>
<circle fill="none" cx="60" cy="0" r="0.1"/>
<circle fill="none" cx="89.7" cy="0" r="0.1"/>
<circle fill="none" cx="120" cy="7.6" r="0.1"/>
<circle fill="none" cx="120" cy="15" r="0.1"/>
<circle fill="none" cx="120" cy="22.4" r="0.1"/>
<circle fill="none" cx="89.7" cy="30" r="0.1"/>
<circle fill="none" cx="60" cy="30" r="0.1"/>
<circle fill="none" cx="30.3" cy="30" r="0.1"/>
<circle fill="none" cx="0" cy="22.4" r="0.1"/>
<circle fill="none" cx="0" cy="15" r="0.1"/>
<circle fill="none" cx="0" cy="7.6" r="0.1"/>
<circle fill="none" cx="30.3" cy="0" r="0.1"/>
</g></g><rect stroke="none" stroke-width="0" fill="#FFFFFF" x="0" y="0" width="0" height="0" transform="translate(119.9,14.9)"/><path stroke="#000000" fill="none" d=""/><text font-family="OpenSansCondensedLight" font-size="14pt" fill="black" transform="translate(119.9,14.9)"/><rect stroke-width="0" fill="none" width="109.5" height="27.3" transform="translate(5.2,1.4)"/><text font-family="OpenSansCondensedLight" font-size="14pt" fill="black" transform="translate(5.2,1.4)" text-anchor="middle"><tspan x="54.8" y="19.9">DATA FILE</tspan></text><path stroke="#000000" fill="none" transform="translate(5.2,1.4)" d="M 0 0"/></g><g transform="translate(254.8,232.5)"><g><g>
<path d="M48.4,0c-10.5,0,-19.3,7.7,-22.5,18.5C11.4,20.4,0,34.6,0,52.1c0,18.7,13,33.9,29,33.9c0.8,0,1.7,0,2.5,-0.2c2.8,11.1,11.4,19.2,21.9,19.2c8.6,0,16.2,-5.7,20,-14c4,4.9,9.7,7.9,16,7.9c9.8,0,18.3,-7.4,21.3,-17.7c0.2,0,0.2,0,0.4,0c13.2,0,23.9,-12.5,23.9,-28s-10.7,-28.1,-24,-28.1c-2.6,0,-4.9,0.5,-6.9,1.2c-2.1,-10.6,-10.3,-18.5,-20,-18.5c-5.7,0,-10.7,2.7,-14.5,7.1C65.6,6.1,57.6,0,48.4,0L48.4,0z" stroke="#000000" stroke-dasharray="none" fill="#FFFFFF"/>
<rect x="12.3" y="32.7" width="108.3" height="39.8" fill="none"/>
<circle fill="none" cx="69.6" cy="14.9" r="0.1"/>
<circle fill="none" cx="88.7" cy="8.5" r="0.1"/>
<circle fill="none" cx="104.1" cy="26.3" r="0.1"/>
<circle fill="none" cx="135" cy="52.2" r="0.1"/>
<circle fill="none" cx="110.6" cy="81.2" r="0.1"/>
<circle fill="none" cx="91" cy="98.8" r="0.1"/>
<circle fill="none" cx="73.4" cy="91" r="0.1"/>
<circle fill="none" cx="52.7" cy="105" r="0.1"/>
<circle fill="none" cx="0" cy="52.1" r="0.1"/>
<circle fill="none" cx="31.5" cy="85.8" r="0.1"/>
<circle fill="none" cx="25.9" cy="18.5" r="0.1"/>
<circle fill="none" cx="48.3" cy="0" r="0.1"/>
</g></g><rect stroke="none" stroke-width="0" fill="#FFFFFF" x="0" y="0" width="0" height="0" transform="translate(134.9,52.1)"/><path stroke="#000000" fill="none" d=""/><text font-family="OpenSansCondensedLight" font-size="14pt" fill="black" transform="translate(134.9,52.1)"/><rect stroke-width="0" fill="none" width="108.3" height="39.8" transform="translate(12.3,32.7)"/><text font-family="OpenSansCondensedLight" font-size="14pt" fill="black" transform="translate(12.3,32.7)" text-anchor="middle"><tspan x="54.2" y="15.7">NETWORK</tspan><tspan x="54.2" y="36.7">104</tspan></text><path stroke="#000000" fill="none" transform="translate(12.3,32.7)" d="M 40.2 39 68.1 39"/></g><g><path stroke="black" stroke-dasharray="none" d="M 255 285 225 285" fill="none"/><path fill="black" stroke="black" d="" transform="translate(255,285) scale(1,1) rotate(-180)"/><path fill="black" stroke="black" d="" transform="translate(225,285) scale(1,1) rotate(0)"/><g><g label-idx="0" cursor="move" transform="translate(240, 285)"><rect fill="white" rx="3" ry="3" x="0" y="0" width="0" height="0"/><text text-anchor="middle" font-size="14pt" font-family="OpenSansCondensedLight" y="0.8em" display="none" xml:space="preserve" transform="translate(0,0)"/></g></g></g><g transform="translate(424.4,256.1)"><g><g>
<g stroke-width="0.5" stroke="#000000" stroke-dasharray="none" fill="#FFFFFF">
    <path d="M0,44.7l13.2,-5.6h80.1l13.2,5.6v13.1H0V44.7z"/>
    <path d="M5.5,46.5H101.3c0.5,0,1.1,0.2,1.1,0.5v8.5c0,0.2,-0.5,0.5,-1.1,0.5H5.5c-0.5,0,-1.1,-0.2,-1.1,-0.5v-8.5C4.4,46.7,5,46.5,5.5,46.5"/>
    <path d="M76.7,50.3c0,0.6,-2.2,0.6,-2.2,0C74.6,49.6,76.7,49.6,76.7,50.3"/>
    <path d="M86.7,47.6h2.2v7.4h-2.2V47.6z"/>
    <path d="M7.7,47.6h6.9c0.5,0,1.1,0.2,1.1,0.5v1.9c0,0.2,-0.5,0.5,-1.1,0.5h-6.9c-0.5,0,-1.1,-0.2,-1.1,-0.5v-1.8C6.6,47.7,7.2,47.6,7.7,47.6"/>
    <path d="M7.7,52.2h6.9c0.5,0,1.1,0.2,1.1,0.5v1.9c0,0.2,-0.5,0.5,-1.1,0.5h-6.9c-0.5,0,-1.1,-0.2,-1.1,-0.5v-1.9C6.6,52.4,7.2,52.2,7.7,52.2"/>
    <path d="M21.3,47.6h6.9c0.5,0,1.1,0.2,1.1,0.5v1.9c0,0.2,-0.5,0.5,-1.1,0.5h-6.9c-0.5,0,-1.1,-0.2,-1.1,-0.5v-1.8C20.1,47.7,20.4,47.6,21.3,47.6"/>
    <path d="M34.5,47.6h6.9c0.5,0,1.1,0.2,1.1,0.5v1.9c0,0.2,-0.5,0.5,-1.1,0.5h-6.9c-0.5,0,-1.1,-0.2,-1.1,-0.5v-1.8C33.4,47.7,34,47.6,34.5,47.6"/>
    <path d="M47.8,47.6h6.9c0.5,0,1.1,0.2,1.1,0.5v1.9c0,0.2,-0.5,0.5,-1.1,0.5h-6.9c-0.5,0,-1.1,-0.2,-1.1,-0.5v-1.8C46.7,47.7,47.2,47.6,47.8,47.6"/>
    <path d="M61.3,47.6h6.9c0.5,0,1.1,0.2,1.1,0.5v1.9c0,0.2,-0.5,0.5,-1.1,0.5h-6.9c-0.5,0,-1.1,-0.2,-1.1,-0.5v-1.8C60.2,47.7,60.5,47.6,61.3,47.6"/>
    <path d="M21.3,52.2h6.9c0.5,0,1.1,0.2,1.1,0.5v1.9c0,0.2,-0.5,0.5,-1.1,0.5h-6.9c-0.5,0,-1.1,-0.2,-1.1,-0.5v-1.9C20.1,52.4,20.4,52.2,21.3,52.2"/>
    <path d="M34.5,52.2h6.9c0.5,0,1.1,0.2,1.1,0.5v1.9c0,0.2,-0.5,0.5,-1.1,0.5h-6.9c-0.5,0,-1.1,-0.2,-1.1,-0.5v-1.9C33.4,52.4,34,52.2,34.5,52.2"/>
    <path d="M47.8,52.2h6.9c0.5,0,1.1,0.2,1.1,0.5v1.9c0,0.2,-0.5,0.5,-1.1,0.5h-6.9c-0.5,0,-1.1,-0.2,-1.1,-0.5v-1.9C46.7,52.4,47.2,52.2,47.8,52.2"/>
    <path d="M61.3,52.2h6.9c0.5,0,1.1,0.2,1.1,0.5v1.9c0,0.2,-0.5,0.5,-1.1,0.5h-6.9c-0.5,0,-1.1,-0.2,-1.1,-0.5v-1.9C60.2,52.4,60.5,52.2,61.3,52.2"/>
    <path d="M8.8,44.7l8.8,-3.7h73.4l8.8,3.7H8.8z"/>
    <path d="M76.7,48.5c0,0.6,-2.2,0.6,-2.2,0C74.6,47.8,76.7,47.8,76.7,48.5"/>
    <path d="M91.1,47.6h2.2v7.4h-2.2V47.6z"/>
    <path d="M95.8,47.6h2.2v7.4h-2.2V47.6z"/>
    <path d="M76.7,52.2c0,0.6,-2.2,0.6,-2.2,0C74.6,51.6,76.7,51.5,76.7,52.2"/>
    <path d="M76.7,54c0,0.6,-2.2,0.6,-2.2,0C74.6,53.5,76.7,53.5,76.7,54"/>
    <path d="M0,31.7l13.2,-5.6h80.1l13.2,5.6v13.1H0V31.7z"/>
    <path d="M5.5,33.5H101.3c0.5,0,1.1,0.2,1.1,0.5v8.5c0,0.2,-0.5,0.5,-1.1,0.5H5.5c-0.5,0,-1.1,-0.2,-1.1,-0.5v-8.5C4.4,33.7,5,33.5,5.5,33.5"/>
    <path d="M76.7,37.2c0,0.6,-2.2,0.6,-2.2,0C74.6,36.6,76.7,36.6,76.7,37.2"/>
    <path d="M86.7,34.4h2.2v7.4h-2.2V34.4z"/>
    <path d="M7.7,34.4h6.9c0.5,0,1.1,0.2,1.1,0.5v1.9c0,0.2,-0.5,0.5,-1.1,0.5h-6.9c-0.5,0,-1.1,-0.2,-1.1,-0.5v-1.9C6.6,34.7,7.2,34.4,7.7,34.4"/>
    <path d="M7.7,39.2h6.9c0.5,0,1.1,0.2,1.1,0.5v1.9c0,0.2,-0.5,0.5,-1.1,0.5h-6.9c-0.5,0,-1.1,-0.2,-1.1,-0.5V39.7C6.6,39.3,7.2,39.2,7.7,39.2"/>
    <path d="M21.3,34.4h6.9c0.5,0,1.1,0.2,1.1,0.5v1.9c0,0.2,-0.5,0.5,-1.1,0.5h-6.9c-0.5,0,-1.1,-0.2,-1.1,-0.5v-1.9C20.1,34.7,20.4,34.4,21.3,34.4"/>
    <path d="M34.5,34.4h6.9c0.5,0,1.1,0.2,1.1,0.5v1.9c0,0.2,-0.5,0.5,-1.1,0.5h-6.9c-0.5,0,-1.1,-0.2,-1.1,-0.5v-1.9C33.4,34.7,34,34.4,34.5,34.4"/>
    <path d="M47.8,34.4h6.9c0.5,0,1.1,0.2,1.1,0.5v1.9c0,0.2,-0.5,0.5,-1.1,0.5h-6.9c-0.5,0,-1.1,-0.2,-1.1,-0.5v-1.9C46.7,34.7,47.2,34.4,47.8,34.4"/>
    <path d="M61.3,34.4h6.9c0.5,0,1.1,0.2,1.1,0.5v1.9c0,0.2,-0.5,0.5,-1.1,0.5h-6.9c-0.5,0,-1.1,-0.2,-1.1,-0.5v-1.9C60.2,34.7,60.5,34.4,61.3,34.4"/>
    <path d="M21.3,39.2h6.9c0.5,0,1.1,0.2,1.1,0.5v1.9c0,0.2,-0.5,0.5,-1.1,0.5h-6.9c-0.5,0,-1.1,-0.2,-1.1,-0.5V39.7C20.1,39.3,20.4,39.2,21.3,39.2"/>
    <path d="M34.5,39.2h6.9c0.5,0,1.1,0.2,1.1,0.5v1.9c0,0.2,-0.5,0.5,-1.1,0.5h-6.9c-0.5,0,-1.1,-0.2,-1.1,-0.5V39.7C33.4,39.3,34,39.2,34.5,39.2"/>
    <path d="M47.8,39.2h6.9c0.5,0,1.1,0.2,1.1,0.5v1.9c0,0.2,-0.5,0.5,-1.1,0.5h-6.9c-0.5,0,-1.1,-0.2,-1.1,-0.5V39.7C46.7,39.3,47.2,39.2,47.8,39.2"/>
    <path d="M61.3,39.2h6.9c0.5,0,1.1,0.2,1.1,0.5v1.9c0,0.2,-0.5,0.5,-1.1,0.5h-6.9c-0.5,0,-1.1,-0.2,-1.1,-0.5V39.7C60.2,39.3,60.5,39.2,61.3,39.2"/>
    <path d="M8.8,31.7l8.8,-3.7h73.4l8.9,3.7H8.8z"/>
    <path d="M76.7,35.4c0,0.6,-2.2,0.6,-2.2,0S76.7,34.8,76.7,35.4"/>
    <path d="M91.1,34.4h2.2v7.4h-2.2V34.4z"/>
    <path d="M95.8,34.4h2.2v7.4h-2.2V34.4z"/>
    <path d="M76.7,39.2c0,0.6,-2.2,0.6,-2.2,0C74.6,38.6,76.7,38.5,76.7,39.2"/>
    <path d="M76.7,41.1c0,0.6,-2.2,0.6,-2.2,0C74.6,40.5,76.7,40.4,76.7,41.1"/>
    <path d="M0,18.6l13.2,-5.6h80.1l13.2,5.6v13.1H0V18.6z"/>
    <path d="M5.5,20.4H101.3c0.5,0,1.1,0.2,1.1,0.5v8.5c0,0.2,-0.5,0.5,-1.1,0.5H5.5c-0.5,0,-1.1,-0.2,-1.1,-0.5v-8.5C4.4,20.7,5,20.4,5.5,20.4"/>
    <path d="M76.7,24.2c0,0.6,-2.2,0.6,-2.2,0C74.6,23.5,76.7,23.5,76.7,24.2"/>
    <path d="M86.7,21.3h2.2v7.4h-2.2V21.3z"/>
    <path d="M7.7,21.3h6.9c0.5,0,1.1,0.2,1.1,0.5v1.9c0,0.2,-0.5,0.5,-1.1,0.5h-6.9c-0.5,0,-1.1,-0.2,-1.1,-0.5v-1.9C6.6,21.6,7.2,21.3,7.7,21.3"/>
    <path d="M7.7,26.1h6.9c0.5,0,1.1,0.2,1.1,0.5v1.9c0,0.2,-0.5,0.5,-1.1,0.5h-6.9c-0.5,0,-1.1,-0.2,-1.1,-0.5v-1.9C6.6,26.3,7.2,26.1,7.7,26.1"/>
    <path d="M21.3,21.3h6.9c0.5,0,1.1,0.2,1.1,0.5v1.9c0,0.2,-0.5,0.5,-1.1,0.5h-6.9c-0.5,0,-1.1,-0.2,-1.1,-0.5v-1.9C20.1,21.6,20.4,21.3,21.3,21.3"/>
    <path d="M34.5,21.3h6.9c0.5,0,1.1,0.2,1.1,0.5v1.9c0,0.2,-0.5,0.5,-1.1,0.5h-6.9c-0.5,0,-1.1,-0.2,-1.1,-0.5v-1.9C33.4,21.6,34,21.3,34.5,21.3"/>
    <path d="M47.8,21.3h6.9c0.5,0,1.1,0.2,1.1,0.5v1.9c0,0.2,-0.5,0.5,-1.1,0.5h-6.9c-0.5,0,-1.1,-0.2,-1.1,-0.5v-1.9C46.7,21.6,47.2,21.3,47.8,21.3"/>
    <path d="M61.3,21.3h6.9c0.5,0,1.1,0.2,1.1,0.5v1.9c0,0.2,-0.5,0.5,-1.1,0.5h-6.9c-0.5,0,-1.1,-0.2,-1.1,-0.5v-1.9C60.2,21.6,60.5,21.3,61.3,21.3"/>
    <path d="M21.3,26.1h6.9c0.5,0,1.1,0.2,1.1,0.5v1.9c0,0.2,-0.5,0.5,-1.1,0.5h-6.9c-0.5,0,-1.1,-0.2,-1.1,-0.5v-1.9C20.1,26.3,20.4,26.1,21.3,26.1"/>
    <path d="M34.5,26.1h6.9c0.5,0,1.1,0.2,1.1,0.5v1.9c0,0.2,-0.5,0.5,-1.1,0.5h-6.9c-0.5,0,-1.1,-0.2,-1.1,-0.5v-1.9C33.4,26.3,34,26.1,34.5,26.1"/>
    <path d="M47.8,26.1h6.9c0.5,0,1.1,0.2,1.1,0.5v1.9c0,0.2,-0.5,0.5,-1.1,0.5h-6.9c-0.5,0,-1.1,-0.2,-1.1,-0.5v-1.9C46.7,26.3,47.2,26.1,47.8,26.1"/>
    <path d="M61.3,26.1h6.9c0.5,0,1.1,0.2,1.1,0.5v1.9c0,0.2,-0.5,0.5,-1.1,0.5h-6.9c-0.5,0,-1.1,-0.2,-1.1,-0.5v-1.9C60.2,26.3,60.5,26.1,61.3,26.1"/>
    <path d="M8.8,18.6l8.8,-3.7h73.4l8.8,3.7H8.8z"/>
    <path d="M76.7,22.3c0,0.6,-2.2,0.6,-2.2,0C74.6,21.7,76.7,21.7,76.7,22.3"/>
    <path d="M91.1,21.3h2.2v7.4h-2.2V21.3z"/>
    <path d="M95.8,21.3h2.2v7.4h-2.2V21.3z"/>
    <path d="M76.7,26.1c0,0.6,-2.2,0.6,-2.2,0C74.6,25.5,76.7,25.4,76.7,26.1"/>
    <path d="M76.7,28c0,0.6,-2.2,0.6,-2.2,0C74.6,27.4,76.7,27.3,76.7,28"/>
    <path d="M0,5.6L13.2,0h80.1l13.2,5.6v13.1H0V5.6z"/>
    <path d="M5.5,7.4H101.3c0.5,0,1.1,0.2,1.1,0.5v8.5c0,0.2,-0.5,0.5,-1.1,0.5H5.5c-0.5,0,-1.1,-0.2,-1.1,-0.5v-8.5C4.4,7.7,5,7.4,5.5,7.4"/>
    <path d="M76.7,11.1c0,0.6,-2.2,0.6,-2.2,0C74.6,10.6,76.7,10.6,76.7,11.1"/>
    <path d="M86.7,8.3h2.2v7.4h-2.2V8.3z"/>
    <path d="M7.7,8.3h6.9c0.5,0,1.1,0.2,1.1,0.5v1.9c0,0.2,-0.5,0.5,-1.1,0.5h-6.9c-0.5,0,-1.1,-0.2,-1.1,-0.5V8.8C6.6,8.6,7.2,8.3,7.7,8.3"/>
    <path d="M7.7,13h6.9c0.5,0,1.1,0.2,1.1,0.5v1.9c0,0.2,-0.5,0.5,-1.1,0.5h-6.9c-0.5,0,-1.1,-0.2,-1.1,-0.5v-1.8C6.6,13.2,7.2,13,7.7,13"/>
    <path d="M21.3,8.3h6.9c0.5,0,1.1,0.2,1.1,0.5v1.9c0,0.2,-0.5,0.5,-1.1,0.5h-6.9c-0.5,0,-1.1,-0.2,-1.1,-0.5V8.8C20.1,8.6,20.4,8.3,21.3,8.3"/>
    <path d="M34.5,8.3h6.9c0.5,0,1.1,0.2,1.1,0.5v1.9c0,0.2,-0.5,0.5,-1.1,0.5h-6.9c-0.5,0,-1.1,-0.2,-1.1,-0.5V8.8C33.4,8.6,34,8.3,34.5,8.3"/>
    <path d="M47.8,8.3h6.9c0.5,0,1.1,0.2,1.1,0.5v1.9c0,0.2,-0.5,0.5,-1.1,0.5h-6.9c-0.5,0,-1.1,-0.2,-1.1,-0.5V8.8C46.7,8.6,47.2,8.3,47.8,8.3"/>
    <path d="M61.3,8.3h6.9c0.5,0,1.1,0.2,1.1,0.5v1.9c0,0.2,-0.5,0.5,-1.1,0.5h-6.9c-0.5,0,-1.1,-0.2,-1.1,-0.5V8.8C60.2,8.6,60.5,8.3,61.3,8.3"/>
    <path d="M21.3,13h6.9c0.5,0,1.1,0.2,1.1,0.5v1.9c0,0.2,-0.5,0.5,-1.1,0.5h-6.9c-0.5,0,-1.1,-0.2,-1.1,-0.5v-1.8C20.1,13.2,20.4,13,21.3,13"/>
    <path d="M34.5,13h6.9c0.5,0,1.1,0.2,1.1,0.5v1.9c0,0.2,-0.5,0.5,-1.1,0.5h-6.9c-0.5,0,-1.1,-0.2,-1.1,-0.5v-1.8C33.4,13.2,34,13,34.5,13"/>
    <path d="M47.8,13h6.9c0.5,0,1.1,0.2,1.1,0.5v1.9c0,0.2,-0.5,0.5,-1.1,0.5h-6.9c-0.5,0,-1.1,-0.2,-1.1,-0.5v-1.8C46.7,13.2,47.2,13,47.8,13"/>
    <path d="M61.3,13h6.9c0.5,0,1.1,0.2,1.1,0.5v1.9c0,0.2,-0.5,0.5,-1.1,0.5h-6.9c-0.5,0,-1.1,-0.2,-1.1,-0.5v-1.8C60.2,13.2,60.5,13,61.3,13"/>
    <path d="M8.8,5.6l8.8,-3.7h73.4l8.8,3.7H8.8z"/>
    <path d="M76.7,9.3c0,0.6,-2.2,0.6,-2.2,0S76.7,8.7,76.7,9.3"/>
    <path d="M91.1,8.3h2.2v7.4h-2.2V8.3z"/>
    <path d="M95.8,8.3h2.2v7.4h-2.2V8.3z"/>
    <path d="M76.7,13c0,0.6,-2.2,0.6,-2.2,0C74.6,12.4,76.7,12.4,76.7,13"/>
    <path d="M76.7,15c0,0.6,-2.2,0.6,-2.2,0C74.6,14.4,76.7,14.3,76.7,15"/>
</g>
<rect x="4.4" y="8.6" width="98" height="43.8" fill="none"/>
<polygon fill="none" points="93.3,0 13.2,0 0,5.6 0,57.8 106.6,57.8 106.6,5.6"/>
<circle fill="none" cx="53.3" cy="0" r="0.1"/>
<circle fill="none" cx="79.6" cy="0" r="0.1"/>
<circle fill="none" cx="106.6" cy="14.6" r="0.1"/>
<circle fill="none" cx="106.6" cy="28.9" r="0.1"/>
<circle fill="none" cx="106.6" cy="43.2" r="0.1"/>
<circle fill="none" cx="79.6" cy="57.8" r="0.1"/>
<circle fill="none" cx="53.3" cy="57.8" r="0.1"/>
<circle fill="none" cx="26.9" cy="57.8" r="0.1"/>
<circle fill="none" cx="0" cy="43.2" r="0.1"/>
<circle fill="none" cx="0" cy="28.9" r="0.1"/>
<circle fill="none" cx="0" cy="14.6" r="0.1"/>
<circle fill="none" cx="26.9" cy="0" r="0.1"/>
</g></g><rect stroke="none" stroke-width="0" fill="#FFFFFF" x="0" y="0" width="0" height="0" transform="translate(106.5,28.8)"/><path stroke="#000000" fill="none" d=""/><text font-family="OpenSansCondensedLight" font-size="14pt" fill="black" transform="translate(106.5,28.8)"/><rect stroke-width="0" fill="none" width="320.3" transform="translate(-106.9,67.9)"/><text font-family="OpenSansCondensedLight" font-size="14pt" fill="black" transform="translate(-106.9,67.9)" text-anchor="middle"><tspan x="160.1" y="16.8">APPLIANCE 108</tspan></text><path stroke="#000000" fill="none" transform="translate(-106.9,67.9)" d="M 199.8 19 227.8 19"/></g><g><path stroke="black" stroke-dasharray="none" d="M 424 285 390 285" fill="none"/><path fill="black" stroke="black" d="" transform="translate(424,285) scale(1,1) rotate(-180)"/><path fill="black" stroke="black" d="" transform="translate(390,285) scale(1,1) rotate(0)"/><g><g label-idx="0" cursor="move" transform="translate(407, 285)"><rect fill="white" rx="3" ry="3" x="0" y="0" width="0" height="0"/><text text-anchor="middle" font-size="14pt" font-family="OpenSansCondensedLight" y="0.8em" display="none" xml:space="preserve" transform="translate(0,0)"/></g></g></g><g transform="translate(556.4,240.1)"><g><g>
<path d="M53.3,0c-11.5,0,-21.3,6.5,-24.8,15.8C12.5,17.5,0,29.6,0,44.6c0,16,14.3,29,31.9,29c0.9,0,1.9,0,2.7,-0.2c3.1,9.5,12.6,16.4,24.2,16.4c9.5,0,17.9,-4.9,22,-12c4.4,4.2,10.6,6.7,17.6,6.7c10.8,0,20.1,-6.3,23.4,-15.2c0.2,0,0.2,0,0.5,0c14.6,0,26.4,-10.7,26.4,-24s-11.8,-24,-26.4,-24c-2.8,0,-5.4,0.4,-7.6,1.1c-2.3,-9,-11.3,-15.8,-22,-15.8c-6.2,0,-11.8,2.3,-16,6.1C72.2,5.2,63.4,0,53.3,0L53.3,0z" stroke="#000000" stroke-dasharray="none" fill="#FFFFFF"/>
<rect x="13.5" y="27.9" width="119.2" height="34.1" fill="none"/>
<circle fill="none" cx="76.6" cy="12.8" r="0.1"/>
<circle fill="none" cx="97.6" cy="7.2" r="0.1"/>
<circle fill="none" cx="114.6" cy="22.5" r="0.1"/>
<circle fill="none" cx="148.6" cy="44.7" r="0.1"/>
<circle fill="none" cx="121.8" cy="69.4" r="0.1"/>
<circle fill="none" cx="100.2" cy="84.5" r="0.1"/>
<circle fill="none" cx="80.8" cy="77.9" r="0.1"/>
<circle fill="none" cx="58.1" cy="89.8" r="0.1"/>
<circle fill="none" cx="0" cy="44.6" r="0.1"/>
<circle fill="none" cx="34.7" cy="73.4" r="0.1"/>
<circle fill="none" cx="28.5" cy="15.8" r="0.1"/>
<circle fill="none" cx="53.2" cy="0" r="0.1"/>
</g></g><rect stroke="none" stroke-width="0" fill="#FFFFFF" x="0" y="0" width="0" height="0" transform="translate(148.5,44.6)"/><path stroke="#000000" fill="none" d=""/><text font-family="OpenSansCondensedLight" font-size="14pt" fill="black" transform="translate(148.5,44.6)"/><rect stroke-width="0" fill="none" width="119.2" height="34.1" transform="translate(13.5,27.9)"/><text font-family="OpenSansCondensedLight" font-size="14pt" fill="black" transform="translate(13.5,27.9)" text-anchor="middle"><tspan x="59.6" y="12.8">NETWORK</tspan><tspan x="59.6" y="33.8">112</tspan></text><path stroke="#000000" fill="none" transform="translate(13.5,27.9)" d="M 46 36 73.3 36"/></g><g transform="translate(556.2,420)"><g><g>
<path d="M151.7,0H0v105h151.7V0L151.7,0z" stroke="#000000" stroke-dasharray="none" fill="#FFFFFF"/>
<rect x="6.6" y="4.8" width="138.4" height="95.4" fill="none"/>
<circle fill="none" cx="75.8" cy="0" r="0.1"/>
<circle fill="none" cx="113.4" cy="0" r="0.1"/>
<circle fill="none" cx="151.7" cy="26.5" r="0.1"/>
<circle fill="none" cx="151.7" cy="52.5" r="0.1"/>
<circle fill="none" cx="151.7" cy="78.5" r="0.1"/>
<circle fill="none" cx="113.4" cy="105" r="0.1"/>
<circle fill="none" cx="75.8" cy="105" r="0.1"/>
<circle fill="none" cx="38.3" cy="105" r="0.1"/>
<circle fill="none" cx="0" cy="78.5" r="0.1"/>
<circle fill="none" cx="0" cy="52.5" r="0.1"/>
<circle fill="none" cx="0" cy="26.5" r="0.1"/>
<circle fill="none" cx="38.3" cy="0" r="0.1"/>
</g></g><rect stroke="none" stroke-width="0" fill="#FFFFFF" x="0" y="0" width="0" height="0" transform="translate(151.6,52.4)"/><path stroke="#000000" fill="none" d=""/><text font-family="OpenSansCondensedLight" font-size="14pt" fill="black" transform="translate(151.6,52.4)"/><rect stroke-width="0" fill="none" width="455.6" transform="translate(-152,115.1)"/><text font-family="OpenSansCondensedLight" font-size="14pt" fill="black" transform="translate(-152,115.1)" text-anchor="middle"><tspan x="227.8" y="16.8">SERVER 106</tspan></text><path stroke="#000000" fill="none" transform="translate(-152,115.1)" d="M 251.2 19 279.1 19"/></g><g transform="translate(570,435)"><g><g>
<path d="M120,0H0v75h120V0L120,0z" stroke="#000000" stroke-dasharray="none" fill="#FFFFFF"/>
<rect x="5.2" y="3.4" width="109.5" height="68.2" fill="none"/>
<circle fill="none" cx="60" cy="0" r="0.1"/>
<circle fill="none" cx="89.7" cy="0" r="0.1"/>
<circle fill="none" cx="120" cy="18.9" r="0.1"/>
<circle fill="none" cx="120" cy="37.5" r="0.1"/>
<circle fill="none" cx="120" cy="56.1" r="0.1"/>
<circle fill="none" cx="89.7" cy="75" r="0.1"/>
<circle fill="none" cx="60" cy="75" r="0.1"/>
<circle fill="none" cx="30.3" cy="75" r="0.1"/>
<circle fill="none" cx="0" cy="56.1" r="0.1"/>
<circle fill="none" cx="0" cy="37.5" r="0.1"/>
<circle fill="none" cx="0" cy="18.9" r="0.1"/>
<circle fill="none" cx="30.3" cy="0" r="0.1"/>
</g></g><rect stroke="none" stroke-width="0" fill="#FFFFFF" x="0" y="0" width="0" height="0" transform="translate(119.9,37.4)"/><path stroke="#000000" fill="none" d=""/><text font-family="OpenSansCondensedLight" font-size="14pt" fill="black" transform="translate(119.9,37.4)"/><rect stroke-width="0" fill="none" width="109.5" height="68.2" transform="translate(5.2,3.4)"/><text font-family="OpenSansCondensedLight" font-size="14pt" fill="black" transform="translate(5.2,3.4)" text-anchor="middle"><tspan x="54.8" y="19.4">performance</tspan><tspan x="54.8" y="40.4">monitoring</tspan><tspan x="54.8" y="61.4">service 406</tspan></text><path stroke="#000000" fill="none" transform="translate(5.2,3.4)" d="M 69.5 63 97.5 63"/></g><g><path stroke="black" stroke-dasharray="none" d="M 632 420 614 330" fill="none"/><path fill="black" stroke="black" d="" transform="translate(632,420) scale(1,1) rotate(-101.3)"/><path fill="black" stroke="black" d="" transform="translate(614,330) scale(1,1) rotate(78.7)"/><g><g label-idx="0" cursor="move" transform="translate(623, 375)"><rect fill="white" rx="3" ry="3" x="0" y="0" width="0" height="0"/><text text-anchor="middle" font-size="14pt" font-family="OpenSansCondensedLight" y="0.8em" display="none" xml:space="preserve" transform="translate(0,0)"/></g></g></g><g><path stroke="black" stroke-dasharray="none" d="M 556 285 531 285" fill="none"/><path fill="black" stroke="black" d="" transform="translate(556,285) scale(1,1) rotate(-180)"/><path fill="black" stroke="black" d="" transform="translate(531,285) scale(1,1) rotate(0)"/><g><g label-idx="0" cursor="move" transform="translate(543.5, 285)"><rect fill="white" rx="3" ry="3" x="0" y="0" width="0" height="0"/><text text-anchor="middle" font-size="14pt" font-family="OpenSansCondensedLight" y="0.8em" display="none" xml:space="preserve" transform="translate(0,0)"/></g></g></g><g transform="translate(720,97.5)"><g><g>
<path d="M165,0H0v375h165V0L165,0z" stroke="#000000" stroke-dasharray="none" fill="#FFFFFF"/>
<rect x="7.2" y="17.1" width="150.6" height="340.8" fill="none"/>
<circle fill="none" cx="82.5" cy="0" r="0.1"/>
<circle fill="none" cx="123.4" cy="0" r="0.1"/>
<circle fill="none" cx="165" cy="94.6" r="0.1"/>
<circle fill="none" cx="165" cy="187.5" r="0.1"/>
<circle fill="none" cx="165" cy="280.4" r="0.1"/>
<circle fill="none" cx="123.4" cy="375" r="0.1"/>
<circle fill="none" cx="82.5" cy="375" r="0.1"/>
<circle fill="none" cx="41.6" cy="375" r="0.1"/>
<circle fill="none" cx="0" cy="280.4" r="0.1"/>
<circle fill="none" cx="0" cy="187.5" r="0.1"/>
<circle fill="none" cx="0" cy="94.6" r="0.1"/>
<circle fill="none" cx="41.6" cy="0" r="0.1"/>
</g></g><rect stroke="none" stroke-width="0" fill="#FFFFFF" x="0" y="0" width="0" height="0" transform="translate(164.9,187.4)"/><path stroke="#000000" fill="none" d=""/><text font-family="OpenSansCondensedLight" font-size="14pt" fill="black" transform="translate(164.9,187.4)"/><rect stroke-width="0" fill="none" width="495.6" transform="translate(-165.3,385.1)"/><text font-family="OpenSansCondensedLight" font-size="14pt" fill="black" transform="translate(-165.3,385.1)" text-anchor="middle"><tspan x="247.8" y="16.8">SERVER 106</tspan></text><path stroke="#000000" fill="none" transform="translate(-165.3,385.1)" d="M 271.2 19 299.2 19"/></g><g><path stroke="black" stroke-dasharray="none" d="M 720 285 705 285" fill="none"/><path fill="black" stroke="black" d="" transform="translate(720,285) scale(1,1) rotate(-180)"/><path fill="black" stroke="black" d="" transform="translate(705,285) scale(1,1) rotate(0)"/><g><g label-idx="0" cursor="move" transform="translate(712.5, 285)"><rect fill="white" rx="3" ry="3" x="0" y="0" width="0" height="0"/><text text-anchor="middle" font-size="14pt" font-family="OpenSansCondensedLight" y="0.8em" display="none" xml:space="preserve" transform="translate(0,0)"/></g></g></g><g transform="translate(742.5,120)"><g><g>
<path d="M120,0H0v30h120V0L120,0z" stroke="#000000" stroke-dasharray="none" fill="#FFFFFF"/>
<rect x="5.2" y="1.4" width="109.5" height="27.3" fill="none"/>
<circle fill="none" cx="60" cy="0" r="0.1"/>
<circle fill="none" cx="89.7" cy="0" r="0.1"/>
<circle fill="none" cx="120" cy="7.6" r="0.1"/>
<circle fill="none" cx="120" cy="15" r="0.1"/>
<circle fill="none" cx="120" cy="22.4" r="0.1"/>
<circle fill="none" cx="89.7" cy="30" r="0.1"/>
<circle fill="none" cx="60" cy="30" r="0.1"/>
<circle fill="none" cx="30.3" cy="30" r="0.1"/>
<circle fill="none" cx="0" cy="22.4" r="0.1"/>
<circle fill="none" cx="0" cy="15" r="0.1"/>
<circle fill="none" cx="0" cy="7.6" r="0.1"/>
<circle fill="none" cx="30.3" cy="0" r="0.1"/>
</g></g><rect stroke="none" stroke-width="0" fill="#FFFFFF" x="0" y="0" width="0" height="0" transform="translate(119.9,14.9)"/><path stroke="#000000" fill="none" d=""/><text font-family="OpenSansCondensedLight" font-size="14pt" fill="black" transform="translate(119.9,14.9)"/><rect stroke-width="0" fill="none" width="109.5" height="27.3" transform="translate(5.2,1.4)"/><text font-family="OpenSansCondensedLight" font-size="14pt" fill="black" transform="translate(5.2,1.4)" text-anchor="middle"><tspan x="54.8" y="19.9">APPLICATION</tspan></text><path stroke="#000000" fill="none" transform="translate(5.2,1.4)" d="M 0 0"/></g><g transform="translate(742.5,165)"><g><g>
<path d="M120,0H0v30h120V0L120,0z" stroke="#000000" stroke-dasharray="none" fill="#FFFFFF"/>
<rect x="5.2" y="1.4" width="109.5" height="27.3" fill="none"/>
<circle fill="none" cx="60" cy="0" r="0.1"/>
<circle fill="none" cx="89.7" cy="0" r="0.1"/>
<circle fill="none" cx="120" cy="7.6" r="0.1"/>
<circle fill="none" cx="120" cy="15" r="0.1"/>
<circle fill="none" cx="120" cy="22.4" r="0.1"/>
<circle fill="none" cx="89.7" cy="30" r="0.1"/>
<circle fill="none" cx="60" cy="30" r="0.1"/>
<circle fill="none" cx="30.3" cy="30" r="0.1"/>
<circle fill="none" cx="0" cy="22.4" r="0.1"/>
<circle fill="none" cx="0" cy="15" r="0.1"/>
<circle fill="none" cx="0" cy="7.6" r="0.1"/>
<circle fill="none" cx="30.3" cy="0" r="0.1"/>
</g></g><rect stroke="none" stroke-width="0" fill="#FFFFFF" x="0" y="0" width="0" height="0" transform="translate(119.9,14.9)"/><path stroke="#000000" fill="none" d=""/><text font-family="OpenSansCondensedLight" font-size="14pt" fill="black" transform="translate(119.9,14.9)"/><rect stroke-width="0" fill="none" width="109.5" height="27.3" transform="translate(5.2,1.4)"/><text font-family="OpenSansCondensedLight" font-size="14pt" fill="black" transform="translate(5.2,1.4)" text-anchor="middle"><tspan x="54.8" y="19.9">DATA FILE</tspan></text><path stroke="#000000" fill="none" transform="translate(5.2,1.4)" d="M 0 0"/></g><g transform="translate(742.5,220)"><g><g>
<path d="M123.7,0H0v150h123.7V0L123.7,0z" stroke="#000000" stroke-dasharray="none" fill="#FFFFFF"/>
<rect x="5.4" y="6.8" width="112.9" height="136.3" fill="none"/>
<circle fill="none" cx="61.9" cy="0" r="0.1"/>
<circle fill="none" cx="92.5" cy="0" r="0.1"/>
<circle fill="none" cx="123.7" cy="37.8" r="0.1"/>
<circle fill="none" cx="123.7" cy="75" r="0.1"/>
<circle fill="none" cx="123.7" cy="112.2" r="0.1"/>
<circle fill="none" cx="92.5" cy="150" r="0.1"/>
<circle fill="none" cx="61.9" cy="150" r="0.1"/>
<circle fill="none" cx="31.2" cy="150" r="0.1"/>
<circle fill="none" cx="0" cy="112.2" r="0.1"/>
<circle fill="none" cx="0" cy="75" r="0.1"/>
<circle fill="none" cx="0" cy="37.8" r="0.1"/>
<circle fill="none" cx="31.2" cy="0" r="0.1"/>
</g></g><rect stroke="none" stroke-width="0" fill="#FFFFFF" x="0" y="0" width="0" height="0" transform="translate(123.6,74.9)"/><path stroke="#000000" fill="none" d=""/><text font-family="OpenSansCondensedLight" font-size="14pt" fill="black" transform="translate(123.6,74.9)"/><rect stroke-width="0" fill="none" width="112.9" height="136.3" transform="translate(5.4,6.8)"/><text font-family="OpenSansCondensedLight" font-size="14pt" fill="black" transform="translate(5.4,6.8)" text-anchor="middle"><tspan x="56.5" y="16.8">APPLICATION</tspan><tspan x="56.5" y="37.8">DELIVERY</tspan><tspan x="56.5" y="58.8">SYSTEM</tspan><tspan x="56.5" y="79.8">408</tspan></text><path stroke="#000000" fill="none" transform="translate(5.4,6.8)" d="M 42.5 82 70.5 82"/></g><g transform="translate(757.5,300)"><g><g>
<path d="M97.7,0H0v53.7h97.7V0L97.7,0z" stroke="#000000" stroke-dasharray="none" fill="#FFFFFF"/>
<rect x="4.3" y="2.5" width="89.2" height="48.8" fill="none"/>
<circle fill="none" cx="48.9" cy="0" r="0.1"/>
<circle fill="none" cx="73.1" cy="0" r="0.1"/>
<circle fill="none" cx="97.7" cy="13.6" r="0.1"/>
<circle fill="none" cx="97.7" cy="26.9" r="0.1"/>
<circle fill="none" cx="97.7" cy="40.2" r="0.1"/>
<circle fill="none" cx="73.1" cy="53.7" r="0.1"/>
<circle fill="none" cx="48.9" cy="53.7" r="0.1"/>
<circle fill="none" cx="24.7" cy="53.7" r="0.1"/>
<circle fill="none" cx="0" cy="40.2" r="0.1"/>
<circle fill="none" cx="0" cy="26.9" r="0.1"/>
<circle fill="none" cx="0" cy="13.6" r="0.1"/>
<circle fill="none" cx="24.7" cy="0" r="0.1"/>
</g></g><rect stroke="none" stroke-width="0" fill="#FFFFFF" x="0" y="0" width="0" height="0" transform="translate(97.6,26.8)"/><path stroke="#000000" fill="none" d=""/><text font-family="OpenSansCondensedLight" font-size="14pt" fill="black" transform="translate(97.6,26.8)"/><rect stroke-width="0" fill="none" width="89.2" height="48.8" transform="translate(4.3,2.5)"/><text font-family="OpenSansCondensedLight" font-size="14pt" fill="black" transform="translate(4.3,2.5)" text-anchor="middle"><tspan x="44.6" y="9.7">POLICY</tspan><tspan x="44.6" y="30.7">ENGINE</tspan><tspan x="44.6" y="51.7">410</tspan></text><path stroke="#000000" fill="none" transform="translate(4.3,2.5)" d="M 30.6 54 58.6 54"/></g><g transform="translate(742.5,386.7)"><g><g>
<path d="M120,0H0v75h120V0L120,0z" stroke="#000000" stroke-dasharray="none" fill="#FFFFFF"/>
<rect x="5.2" y="3.4" width="109.5" height="68.2" fill="none"/>
<circle fill="none" cx="60" cy="0" r="0.1"/>
<circle fill="none" cx="89.7" cy="0" r="0.1"/>
<circle fill="none" cx="120" cy="18.9" r="0.1"/>
<circle fill="none" cx="120" cy="37.5" r="0.1"/>
<circle fill="none" cx="120" cy="56.1" r="0.1"/>
<circle fill="none" cx="89.7" cy="75" r="0.1"/>
<circle fill="none" cx="60" cy="75" r="0.1"/>
<circle fill="none" cx="30.3" cy="75" r="0.1"/>
<circle fill="none" cx="0" cy="56.1" r="0.1"/>
<circle fill="none" cx="0" cy="37.5" r="0.1"/>
<circle fill="none" cx="0" cy="18.9" r="0.1"/>
<circle fill="none" cx="30.3" cy="0" r="0.1"/>
</g></g><rect stroke="none" stroke-width="0" fill="#FFFFFF" x="0" y="0" width="0" height="0" transform="translate(119.9,37.4)"/><path stroke="#000000" fill="none" d=""/><text font-family="OpenSansCondensedLight" font-size="14pt" fill="black" transform="translate(119.9,37.4)"/><rect stroke-width="0" fill="none" width="109.5" height="68.2" transform="translate(5.2,3.4)"/><text font-family="OpenSansCondensedLight" font-size="14pt" fill="black" transform="translate(5.2,3.4)" text-anchor="middle"><tspan x="54.8" y="19.4">PERFORMANCE</tspan><tspan x="54.8" y="40.4">MONITORING</tspan><tspan x="54.8" y="61.4">AGENT 412</tspan></text><path stroke="#000000" fill="none" transform="translate(5.2,3.4)" d="M 74.7 63 102.7 63"/></g></g><defs/></svg>