<svg xmlns="http://www.w3.org/2000/svg" xmlns:xlink="http://www.w3.org/1999/xlink" version="1.1" width="654.1" height="569.8" viewBox="47.3 1.6 654.1 569.8"><g><g transform="translate(105,270)"><g><g>
<g fill="#FFFFFF">
    <rect y="0" width="210" height="40.5"/>
</g>
<g stroke="#000000" stroke-dasharray="none">
    <line fill="none" stroke-linejoin="round" x1="210" y1="40.5" x2="2.4" y2="40.5"/>
</g>
<polygon points="9.7,36 11.3,36.8 3.3,40.5 11.3,44.2 9.7,45 0,40.5"/>
<rect x="8.2" y="1.6" fill="none" width="193.6" height="37.3"/>
<circle fill="none" cx="111.6" cy="40.5" r="0.1"/>
<circle fill="none" cx="146.9" cy="40.5" r="0.1"/>
<circle fill="none" cx="182.3" cy="40.4" r="0.1"/>
<circle fill="none" cx="199.8" cy="40.4" r="0.1"/>
<circle fill="none" cx="164.6" cy="40.5" r="0.1"/>
<circle fill="none" cx="129.2" cy="40.5" r="0.1"/>
<circle fill="none" cx="93.9" cy="40.5" r="0.1"/>
<circle fill="none" cx="58.7" cy="40.5" r="0.1"/>
<circle fill="none" cx="23.2" cy="40.5" r="0.1"/>
<circle fill="none" cx="5.5" cy="40.5" r="0.1"/>
<circle fill="none" cx="40.9" cy="40.5" r="0.1"/>
<circle fill="none" cx="76.2" cy="40.5" r="0.1"/>
</g></g><rect stroke="none" stroke-width="0" fill="#FFFFFF" x="0" y="0" width="0" height="0" transform="translate(129.1,40.4)"/><path stroke="#000000" fill="none" d=""/><text font-family="OpenSansCondensedLight" font-size="14pt" fill="black" transform="translate(129.1,40.4)"/><rect stroke-width="0" fill="none" width="193.6" height="37.3" transform="translate(8.2,1.6)"/><text font-family="OpenSansCondensedLight" font-size="14pt" fill="black" transform="translate(8.2,1.6)" text-anchor="middle"><tspan x="96.8" y="25"> </tspan></text><path stroke="#000000" fill="none" transform="translate(8.2,1.6)" d="M 0 0"/></g><g transform="translate(315,270)"><g><g>
<g fill="#FFFFFF">
    <rect y="0" width="270" height="40.5"/>
</g>
<g stroke="#000000" stroke-dasharray="none">
    <line fill="none" stroke-linejoin="round" x1="0" y1="40.5" x2="266.9" y2="40.5"/>
</g>
<g>
    <polygon points="257.5,45 255.5,44.2 265.8,40.5 255.5,36.8 257.5,36 270,40.5"/>
</g>
<rect x="10.6" y="1.6" fill="none" width="248.9" height="37.3"/>
<circle fill="none" cx="143.5" cy="40.5" r="0.1"/>
<circle fill="none" cx="188.9" cy="40.5" r="0.1"/>
<circle fill="none" cx="234.3" cy="40.4" r="0.1"/>
<circle fill="none" cx="256.9" cy="40.4" r="0.1"/>
<circle fill="none" cx="211.6" cy="40.5" r="0.1"/>
<circle fill="none" cx="166.2" cy="40.5" r="0.1"/>
<circle fill="none" cx="120.7" cy="40.5" r="0.1"/>
<circle fill="none" cx="75.4" cy="40.5" r="0.1"/>
<circle fill="none" cx="29.9" cy="40.5" r="0.1"/>
<circle fill="none" cx="7.1" cy="40.5" r="0.1"/>
<circle fill="none" cx="52.6" cy="40.5" r="0.1"/>
<circle fill="none" cx="98" cy="40.5" r="0.1"/>
</g></g><rect stroke="none" stroke-width="1" fill="#FFFFFF" x="0" y="0" width="40" height="20" transform="translate(25.3,82.3)"/><path stroke="#000000" fill="none" d="M75.4,40.5 C47.4,47.9 79.2,74.9 51.1 82.3"/><text font-family="OpenSansCondensedLight" font-size="14pt" fill="black" transform="translate(25.3,82.3)" text-anchor="middle"><tspan x="20" y="16.3">502</tspan></text><rect stroke-width="0" fill="none" width="248.9" height="37.3" transform="translate(10.6,1.6)"/><text font-family="OpenSansCondensedLight" font-size="14pt" fill="black" transform="translate(10.6,1.6)" text-anchor="middle"><tspan x="124.4" y="25"> </tspan></text><path stroke="#000000" fill="none" transform="translate(10.6,1.6)" d="M 0 0"/></g><g transform="translate(484.5,394.5)"><g><g>
<path d="M89.7,0H0v71.8h89.7V0L89.7,0z" stroke="#000000" stroke-dasharray="none" fill="#FFFFFF"/>
<rect x="3.9" y="3.3" width="81.9" height="65.2" fill="none"/>
<circle fill="none" cx="44.9" cy="0" r="0.1"/>
<circle fill="none" cx="67.1" cy="0" r="0.1"/>
<circle fill="none" cx="89.7" cy="18.1" r="0.1"/>
<circle fill="none" cx="89.7" cy="35.9" r="0.1"/>
<circle fill="none" cx="89.7" cy="53.7" r="0.1"/>
<circle fill="none" cx="67.1" cy="71.8" r="0.1"/>
<circle fill="none" cx="44.9" cy="71.8" r="0.1"/>
<circle fill="none" cx="22.6" cy="71.8" r="0.1"/>
<circle fill="none" cx="0" cy="53.7" r="0.1"/>
<circle fill="none" cx="0" cy="35.9" r="0.1"/>
<circle fill="none" cx="0" cy="18.1" r="0.1"/>
<circle fill="none" cx="22.6" cy="0" r="0.1"/>
</g></g><rect stroke="none" stroke-width="1" fill="#FFFFFF" x="0" y="0" width="40" height="20" transform="translate(129.6,25.8)"/><path stroke="#000000" fill="none" d="M89.7,35.9 C106.7,52.8 112.7,18.9 129.6 35.8"/><text font-family="OpenSansCondensedLight" font-size="14pt" fill="black" transform="translate(129.6,25.8)" text-anchor="middle"><tspan x="20" y="16.3">506</tspan></text><rect stroke-width="0" fill="none" width="81.9" height="65.2" transform="translate(3.9,3.3)"/><text font-family="OpenSansCondensedLight" font-size="14pt" fill="black" transform="translate(3.9,3.3)" text-anchor="middle"><tspan x="40.9" y="28.4">NETWORK</tspan><tspan x="40.9" y="49.4">INTERFACE</tspan></text><path stroke="#000000" fill="none" transform="translate(3.9,3.3)" d="M 0 0"/></g><g><path stroke="black" stroke-dasharray="none" d="M 527 394 527 310" fill="none"/><path fill="black" stroke="black" d="" transform="translate(527,394) scale(1,1) rotate(-90)"/><path fill="black" stroke="black" d="" transform="translate(527,310) scale(1,1) rotate(-270)"/><g><g label-idx="0" cursor="move" transform="translate(527, 352)"><rect fill="white" rx="3" ry="3" x="0" y="0" width="0" height="0"/><text text-anchor="middle" font-size="14pt" font-family="OpenSansCondensedLight" y="0.8em" display="none" xml:space="preserve" transform="translate(0,0)"/></g></g></g><g transform="translate(360,400.4)"><g><g>
<path d="M90.6,0H0v60.4h90.6V0L90.6,0z" stroke="#000000" stroke-dasharray="none" fill="#FFFFFF"/>
<rect x="4" y="2.8" width="82.7" height="54.9" fill="none"/>
<circle fill="none" cx="45.3" cy="0" r="0.1"/>
<circle fill="none" cx="67.7" cy="0" r="0.1"/>
<circle fill="none" cx="90.6" cy="15.2" r="0.1"/>
<circle fill="none" cx="90.6" cy="30.2" r="0.1"/>
<circle fill="none" cx="90.6" cy="45.2" r="0.1"/>
<circle fill="none" cx="67.7" cy="60.4" r="0.1"/>
<circle fill="none" cx="45.3" cy="60.4" r="0.1"/>
<circle fill="none" cx="22.9" cy="60.4" r="0.1"/>
<circle fill="none" cx="0" cy="45.2" r="0.1"/>
<circle fill="none" cx="0" cy="30.2" r="0.1"/>
<circle fill="none" cx="0" cy="15.2" r="0.1"/>
<circle fill="none" cx="22.9" cy="0" r="0.1"/>
</g></g><rect stroke="none" stroke-width="1" fill="#FFFFFF" x="0" y="0" width="40" height="20" transform="translate(130.5,20.1)"/><path stroke="#000000" fill="none" d="M90.6,30.2 C107.5,47.1 113.5,13.2 130.5 30.1"/><text font-family="OpenSansCondensedLight" font-size="14pt" fill="black" transform="translate(130.5,20.1)" text-anchor="middle"><tspan x="20" y="16.3">508</tspan></text><rect stroke-width="0" fill="none" width="82.7" height="54.9" transform="translate(4,2.8)"/><text font-family="OpenSansCondensedLight" font-size="14pt" fill="black" transform="translate(4,2.8)" text-anchor="middle"><tspan x="41.3" y="23.2">INSTALLATION</tspan><tspan x="41.3" y="44.2">DEVICE</tspan></text><path stroke="#000000" fill="none" transform="translate(4,2.8)" d="M 0 0"/></g><g><path stroke="black" stroke-dasharray="none" d="M 405 400 413 310" fill="none"/><path fill="black" stroke="black" d="" transform="translate(405,400) scale(1,1) rotate(-84.9)"/><path fill="black" stroke="black" d="" transform="translate(413,310) scale(1,1) rotate(-264.9)"/><g><g label-idx="0" cursor="move" transform="translate(409, 355)"><rect fill="white" rx="3" ry="3" x="0" y="0" width="0" height="0"/><text text-anchor="middle" font-size="14pt" font-family="OpenSansCondensedLight" y="0.8em" display="none" xml:space="preserve" transform="translate(0,0)"/></g></g></g><g transform="translate(225,406.5)"><g><g>
<path d="M111.2,0H0v47.7h111.2V0L111.2,0z" stroke="#000000" stroke-dasharray="none" fill="#FFFFFF"/>
<rect x="4.9" y="2.2" width="101.5" height="43.3" fill="none"/>
<circle fill="none" cx="55.6" cy="0" r="0.1"/>
<circle fill="none" cx="83.2" cy="0" r="0.1"/>
<circle fill="none" cx="111.2" cy="12" r="0.1"/>
<circle fill="none" cx="111.2" cy="23.8" r="0.1"/>
<circle fill="none" cx="111.2" cy="35.6" r="0.1"/>
<circle fill="none" cx="83.2" cy="47.7" r="0.1"/>
<circle fill="none" cx="55.6" cy="47.7" r="0.1"/>
<circle fill="none" cx="28.1" cy="47.7" r="0.1"/>
<circle fill="none" cx="0" cy="35.6" r="0.1"/>
<circle fill="none" cx="0" cy="23.8" r="0.1"/>
<circle fill="none" cx="0" cy="12" r="0.1"/>
<circle fill="none" cx="28.1" cy="0" r="0.1"/>
</g></g><rect stroke="none" stroke-width="1" fill="#FFFFFF" x="0" y="0" width="40" height="20" transform="translate(151.1,13.7)"/><path stroke="#000000" fill="none" d="M111.2,23.8 C128.2,40.7 134.1,6.9 151.1 23.8"/><text font-family="OpenSansCondensedLight" font-size="14pt" fill="black" transform="translate(151.1,13.7)" text-anchor="middle"><tspan x="20" y="16.3">510</tspan></text><rect stroke-width="0" fill="none" width="101.5" height="43.3" transform="translate(4.9,2.2)"/><text font-family="OpenSansCondensedLight" font-size="14pt" fill="black" transform="translate(4.9,2.2)" text-anchor="middle"><tspan x="50.7" y="17.5">DISPLAY</tspan><tspan x="50.7" y="38.5">DEVICES</tspan></text><path stroke="#000000" fill="none" transform="translate(4.9,2.2)" d="M 0 0"/></g><g><path stroke="black" stroke-dasharray="none" d="M 281 407 270 310" fill="none"/><path fill="black" stroke="black" d="" transform="translate(281,407) scale(1,1) rotate(-96.5)"/><path fill="black" stroke="black" d="" transform="translate(270,310) scale(1,1) rotate(83.5)"/><g><g label-idx="0" cursor="move" transform="translate(275.5, 358.5)"><rect fill="white" rx="3" ry="3" x="0" y="0" width="0" height="0"/><text text-anchor="middle" font-size="14pt" font-family="OpenSansCondensedLight" y="0.8em" display="none" xml:space="preserve" transform="translate(0,0)"/></g></g></g><g transform="translate(124.5,403.3)"><g><g>
<path d="M60,0H0v54.1h60V0L60,0z" stroke="#000000" stroke-dasharray="none" fill="#FFFFFF"/>
<rect x="2.6" y="2.5" width="54.8" height="49.2" fill="none"/>
<circle fill="none" cx="30" cy="0" r="0.1"/>
<circle fill="none" cx="44.9" cy="0" r="0.1"/>
<circle fill="none" cx="60" cy="13.6" r="0.1"/>
<circle fill="none" cx="60" cy="27.1" r="0.1"/>
<circle fill="none" cx="60" cy="40.5" r="0.1"/>
<circle fill="none" cx="44.9" cy="54.1" r="0.1"/>
<circle fill="none" cx="30" cy="54.1" r="0.1"/>
<circle fill="none" cx="15.1" cy="54.1" r="0.1"/>
<circle fill="none" cx="0" cy="40.5" r="0.1"/>
<circle fill="none" cx="0" cy="27.1" r="0.1"/>
<circle fill="none" cx="0" cy="13.6" r="0.1"/>
<circle fill="none" cx="15.1" cy="0" r="0.1"/>
</g></g><rect stroke="none" stroke-width="1" fill="#FFFFFF" x="0" y="0" width="40" height="20" transform="translate(99.9,17)"/><path stroke="#000000" fill="none" d="M60,27.1 C77,44 82.9,10.1 99.9 27"/><text font-family="OpenSansCondensedLight" font-size="14pt" fill="black" transform="translate(99.9,17)" text-anchor="middle"><tspan x="20" y="16.3">512</tspan></text><rect stroke-width="0" fill="none" width="54.8" height="49.2" transform="translate(2.6,2.5)"/><text font-family="OpenSansCondensedLight" font-size="14pt" fill="black" transform="translate(2.6,2.5)" text-anchor="middle"><tspan x="27.4" y="20.4">I/O</tspan><tspan x="27.4" y="41.4">CTRL</tspan></text><path stroke="#000000" fill="none" transform="translate(2.6,2.5)" d="M 0 0"/></g><g transform="translate(64.5,499.5)"><g><g>
<path d="M69.2,0H0v69.2h69.2V0L69.2,0z" stroke="#000000" stroke-dasharray="none" fill="#FFFFFF"/>
<rect x="3" y="3.2" width="63.1" height="62.9" fill="none"/>
<circle fill="none" cx="34.6" cy="0" r="0.1"/>
<circle fill="none" cx="51.7" cy="0" r="0.1"/>
<circle fill="none" cx="69.2" cy="17.4" r="0.1"/>
<circle fill="none" cx="69.2" cy="34.6" r="0.1"/>
<circle fill="none" cx="69.2" cy="51.7" r="0.1"/>
<circle fill="none" cx="51.7" cy="69.2" r="0.1"/>
<circle fill="none" cx="34.6" cy="69.2" r="0.1"/>
<circle fill="none" cx="17.5" cy="69.2" r="0.1"/>
<circle fill="none" cx="0" cy="51.7" r="0.1"/>
<circle fill="none" cx="0" cy="34.6" r="0.1"/>
<circle fill="none" cx="0" cy="17.4" r="0.1"/>
<circle fill="none" cx="17.5" cy="0" r="0.1"/>
</g></g><rect stroke="none" stroke-width="1" fill="#FFFFFF" x="0" y="0" width="40" height="20" transform="translate(109.1,24.5)"/><path stroke="#000000" fill="none" d="M69.2,34.6 C86.2,51.5 92.1,17.6 109.1 34.5"/><text font-family="OpenSansCondensedLight" font-size="14pt" fill="black" transform="translate(109.1,24.5)" text-anchor="middle"><tspan x="20" y="16.3">514</tspan></text><rect stroke-width="0" fill="none" width="63.1" height="62.9" transform="translate(3,3.2)"/><text font-family="OpenSansCondensedLight" font-size="14pt" fill="black" transform="translate(3,3.2)" text-anchor="middle"><tspan x="31.6" y="37.7">KEYBOARD</tspan></text><path stroke="#000000" fill="none" transform="translate(3,3.2)" d="M 0 0"/></g><g><path stroke="black" stroke-dasharray="none" d="M 116 499 140 457" fill="none"/><path fill="black" stroke="black" d="" transform="translate(116,499) scale(1,1) rotate(-60.3)"/><path fill="black" stroke="black" d="" transform="translate(140,457) scale(1,1) rotate(-240.3)"/><g><g label-idx="0" cursor="move" transform="translate(128, 478)"><rect fill="white" rx="3" ry="3" x="0" y="0" width="0" height="0"/><text text-anchor="middle" font-size="14pt" font-family="OpenSansCondensedLight" y="0.8em" display="none" xml:space="preserve" transform="translate(0,0)"/></g></g></g><g transform="translate(172.5,499.5)"><g><g>
<path d="M87.8,0H0v70.2h87.8V0L87.8,0z" stroke="#000000" stroke-dasharray="none" fill="#FFFFFF"/>
<rect x="3.8" y="3.2" width="80.1" height="63.8" fill="none"/>
<circle fill="none" cx="43.9" cy="0" r="0.1"/>
<circle fill="none" cx="65.6" cy="0" r="0.1"/>
<circle fill="none" cx="87.8" cy="17.7" r="0.1"/>
<circle fill="none" cx="87.8" cy="35.1" r="0.1"/>
<circle fill="none" cx="87.8" cy="52.5" r="0.1"/>
<circle fill="none" cx="65.6" cy="70.2" r="0.1"/>
<circle fill="none" cx="43.9" cy="70.2" r="0.1"/>
<circle fill="none" cx="22.1" cy="70.2" r="0.1"/>
<circle fill="none" cx="0" cy="52.5" r="0.1"/>
<circle fill="none" cx="0" cy="35.1" r="0.1"/>
<circle fill="none" cx="0" cy="17.7" r="0.1"/>
<circle fill="none" cx="22.1" cy="0" r="0.1"/>
</g></g><rect stroke="none" stroke-width="1" fill="#FFFFFF" x="0" y="0" width="40" height="20" transform="translate(127.7,25)"/><path stroke="#000000" fill="none" d="M87.8,35.1 C104.7,52 110.7,18.1 127.7 35"/><text font-family="OpenSansCondensedLight" font-size="14pt" fill="black" transform="translate(127.7,25)" text-anchor="middle"><tspan x="20" y="16.3">516</tspan></text><rect stroke-width="0" fill="none" width="80.1" height="63.8" transform="translate(3.8,3.2)"/><text font-family="OpenSansCondensedLight" font-size="14pt" fill="black" transform="translate(3.8,3.2)" text-anchor="middle"><tspan x="40" y="27.7">POINTING</tspan><tspan x="40" y="48.7">DEVICE</tspan></text><path stroke="#000000" fill="none" transform="translate(3.8,3.2)" d="M 0 0"/></g><g><path stroke="black" stroke-dasharray="none" d="M 195 499 169 457" fill="none"/><path fill="black" stroke="black" d="" transform="translate(195,499) scale(1,1) rotate(-121.8)"/><path fill="black" stroke="black" d="" transform="translate(169,457) scale(1,1) rotate(58.2)"/><g><g label-idx="0" cursor="move" transform="translate(182, 478)"><rect fill="white" rx="3" ry="3" x="0" y="0" width="0" height="0"/><text text-anchor="middle" font-size="14pt" font-family="OpenSansCondensedLight" y="0.8em" display="none" xml:space="preserve" transform="translate(0,0)"/></g></g></g><g><path stroke="black" stroke-dasharray="none" d="M 154 403 164 310" fill="none"/><path fill="black" stroke="black" d="" transform="translate(154,403) scale(1,1) rotate(-83.9)"/><path fill="black" stroke="black" d="" transform="translate(164,310) scale(1,1) rotate(-263.9)"/><g><g label-idx="0" cursor="move" transform="translate(159, 356.5)"><rect fill="white" rx="3" ry="3" x="0" y="0" width="0" height="0"/><text text-anchor="middle" font-size="14pt" font-family="OpenSansCondensedLight" y="0.8em" display="none" xml:space="preserve" transform="translate(0,0)"/></g></g></g><g transform="translate(97.5,199.5)"><g><g>
<path d="M75,0H0v30h75V0L75,0z" stroke="#000000" stroke-dasharray="none" fill="#FFFFFF"/>
<rect x="3.3" y="1.4" width="68.4" height="27.3" fill="none"/>
<circle fill="none" cx="37.5" cy="0" r="0.1"/>
<circle fill="none" cx="56.1" cy="0" r="0.1"/>
<circle fill="none" cx="75" cy="7.6" r="0.1"/>
<circle fill="none" cx="75" cy="15" r="0.1"/>
<circle fill="none" cx="75" cy="22.4" r="0.1"/>
<circle fill="none" cx="56.1" cy="30" r="0.1"/>
<circle fill="none" cx="37.5" cy="30" r="0.1"/>
<circle fill="none" cx="18.9" cy="30" r="0.1"/>
<circle fill="none" cx="0" cy="22.4" r="0.1"/>
<circle fill="none" cx="0" cy="15" r="0.1"/>
<circle fill="none" cx="0" cy="7.6" r="0.1"/>
<circle fill="none" cx="18.9" cy="0" r="0.1"/>
</g></g><rect stroke="none" stroke-width="0" fill="#FFFFFF" x="0" y="0" width="0" height="0" transform="translate(74.9,14.9)"/><path stroke="#000000" fill="none" d=""/><text font-family="OpenSansCondensedLight" font-size="14pt" fill="black" transform="translate(74.9,14.9)"/><rect stroke-width="0" fill="none" width="68.4" height="27.3" transform="translate(3.3,1.4)"/><text font-family="OpenSansCondensedLight" font-size="14pt" fill="black" transform="translate(3.3,1.4)" text-anchor="middle"><tspan x="34.2" y="9.4">CPU</tspan><tspan x="34.2" y="30.4">518</tspan></text><path stroke="#000000" fill="none" transform="translate(3.3,1.4)" d="M 20.2 33 48.2 33"/></g><g><path stroke="black" stroke-dasharray="none" d="M 135 229 146 310" fill="none"/><path fill="black" stroke="black" d="" transform="translate(135,229) scale(1,1) rotate(82.3)"/><path fill="black" stroke="black" d="" transform="translate(146,310) scale(1,1) rotate(-97.7)"/><g><g label-idx="0" cursor="move" transform="translate(140.5, 269.5)"><rect fill="white" rx="3" ry="3" x="0" y="0" width="0" height="0"/><text text-anchor="middle" font-size="14pt" font-family="OpenSansCondensedLight" y="0.8em" display="none" xml:space="preserve" transform="translate(0,0)"/></g></g></g><g transform="translate(199.5,163.6)"><g><g>
<path d="M90,0H0v65.9h90V0L90,0z" stroke="#000000" stroke-dasharray="none" fill="#FFFFFF"/>
<rect x="3.9" y="3" width="82.1" height="59.9" fill="none"/>
<circle fill="none" cx="45" cy="0" r="0.1"/>
<circle fill="none" cx="67.3" cy="0" r="0.1"/>
<circle fill="none" cx="90" cy="16.6" r="0.1"/>
<circle fill="none" cx="90" cy="32.9" r="0.1"/>
<circle fill="none" cx="90" cy="49.3" r="0.1"/>
<circle fill="none" cx="67.3" cy="65.9" r="0.1"/>
<circle fill="none" cx="45" cy="65.9" r="0.1"/>
<circle fill="none" cx="22.7" cy="65.9" r="0.1"/>
<circle fill="none" cx="0" cy="49.3" r="0.1"/>
<circle fill="none" cx="0" cy="32.9" r="0.1"/>
<circle fill="none" cx="0" cy="16.6" r="0.1"/>
<circle fill="none" cx="22.7" cy="0" r="0.1"/>
</g></g><rect stroke="none" stroke-width="0" fill="#FFFFFF" x="0" y="0" width="0" height="0" transform="translate(89.9,32.8)"/><path stroke="#000000" fill="none" d=""/><text font-family="OpenSansCondensedLight" font-size="14pt" fill="black" transform="translate(89.9,32.8)"/><rect stroke-width="0" fill="none" width="82.1" height="59.9" transform="translate(3.9,3)"/><text font-family="OpenSansCondensedLight" font-size="14pt" fill="black" transform="translate(3.9,3)" text-anchor="middle"><tspan x="41.1" y="15.2">MAIN</tspan><tspan x="41.1" y="36.2">MEMORY</tspan><tspan x="41.1" y="57.2">504</tspan></text><path stroke="#000000" fill="none" transform="translate(3.9,3)" d="M 27.1 59 55.1 59"/></g><g><path stroke="black" stroke-dasharray="none" d="M 244 229 234 310" fill="none"/><path fill="black" stroke="black" d="" transform="translate(244,229) scale(1,1) rotate(-263)"/><path fill="black" stroke="black" d="" transform="translate(234,310) scale(1,1) rotate(-83)"/><g><g label-idx="0" cursor="move" transform="translate(239, 269.5)"><rect fill="white" rx="3" ry="3" x="0" y="0" width="0" height="0"/><text text-anchor="middle" font-size="14pt" font-family="OpenSansCondensedLight" y="0.8em" display="none" xml:space="preserve" transform="translate(0,0)"/></g></g></g><g transform="translate(315,1.7)"><g><g>
<g stroke="#000000" stroke-dasharray="none" fill="#FFFFFF">
    <path d="M179.6,42H0v171c0,23,40.2,42,90,42s90,-19,90,-42v-171L179.6,42L179.6,42z"/>
    <path d="M90,0C40.2,0,0,19,0,42s40.2,42,90,42s90,-19,90,-42C179.6,19,139.4,0,90,0L90,0z"/>
</g>
<rect x="9.6" y="93.3" width="160.5" height="121" fill="none"/>
<circle fill="none" cx="90" cy="0" r="0.1"/>
<circle fill="none" cx="137.2" cy="6.4" r="0.1"/>
<circle fill="none" cx="180" cy="42" r="0.1"/>
<circle fill="none" cx="180" cy="127.5" r="0.1"/>
<circle fill="none" cx="180" cy="213" r="0.1"/>
<circle fill="none" cx="139.6" cy="248" r="0.1"/>
<circle fill="none" cx="90" cy="255" r="0.1"/>
<circle fill="none" cx="37.8" cy="247" r="0.1"/>
<circle fill="none" cx="0" cy="213" r="0.1"/>
<circle fill="none" cx="0" cy="127.5" r="0.1"/>
<circle fill="none" cx="0" cy="42" r="0.1"/>
<circle fill="none" cx="42.5" cy="6.4" r="0.1"/>
</g></g><rect stroke="none" stroke-width="1" fill="#FFFFFF" x="0" y="0" width="40" height="20" transform="translate(219.9,117.4)"/><path stroke="#000000" fill="none" d="M180,127.5 C197,144.4 202.9,110.5 219.9 127.4"/><text font-family="OpenSansCondensedLight" font-size="14pt" fill="black" transform="translate(219.9,117.4)" text-anchor="middle"><tspan x="20" y="16.3">520</tspan></text><rect stroke-width="0" fill="none" width="160.5" height="121" transform="translate(9.6,93.3)"/><text font-family="OpenSansCondensedLight" font-size="14pt" fill="black" transform="translate(9.6,93.3)" text-anchor="middle"><tspan x="80.3" y="16.8">STORAGE</tspan></text><path stroke="#000000" fill="none" transform="translate(9.6,93.3)" d="M 0 0"/></g><g transform="translate(352.8,197.3)"><g><g>
<path d="M105,0H0v34.4h105V0L105,0z" stroke="#000000" stroke-dasharray="none" fill="#FFFFFF"/>
<rect x="4.6" y="1.6" width="95.8" height="31.3" fill="none"/>
<circle fill="none" cx="52.5" cy="0" r="0.1"/>
<circle fill="none" cx="78.5" cy="0" r="0.1"/>
<circle fill="none" cx="105" cy="8.7" r="0.1"/>
<circle fill="none" cx="105" cy="17.2" r="0.1"/>
<circle fill="none" cx="105" cy="25.7" r="0.1"/>
<circle fill="none" cx="78.5" cy="34.4" r="0.1"/>
<circle fill="none" cx="52.5" cy="34.4" r="0.1"/>
<circle fill="none" cx="26.5" cy="34.4" r="0.1"/>
<circle fill="none" cx="0" cy="25.7" r="0.1"/>
<circle fill="none" cx="0" cy="17.2" r="0.1"/>
<circle fill="none" cx="0" cy="8.7" r="0.1"/>
<circle fill="none" cx="26.5" cy="0" r="0.1"/>
</g></g><rect stroke="none" stroke-width="1" fill="#FFFFFF" x="0" y="0" width="40" height="20" transform="translate(144.9,7.1)"/><path stroke="#000000" fill="none" d="M105,17.2 C122,34.1 127.9,0.2 144.9 17.1"/><text font-family="OpenSansCondensedLight" font-size="14pt" fill="black" transform="translate(144.9,7.1)" text-anchor="middle"><tspan x="20" y="16.3">402</tspan></text><rect stroke-width="0" fill="none" width="95.8" height="31.3" transform="translate(4.6,1.6)"/><text font-family="OpenSansCondensedLight" font-size="14pt" fill="black" transform="translate(4.6,1.6)" text-anchor="middle"><tspan x="47.9" y="6.1">CLIENT</tspan><tspan x="47.9" y="27.1">AGENT</tspan></text><path stroke="#000000" fill="none" transform="translate(4.6,1.6)" d="M 0 0"/></g><g transform="translate(352.8,163.6)"><g><g>
<path d="M105,0H0v30h105V0L105,0z" stroke="#000000" stroke-dasharray="none" fill="#FFFFFF"/>
<rect x="4.6" y="1.4" width="95.8" height="27.3" fill="none"/>
<circle fill="none" cx="52.5" cy="0" r="0.1"/>
<circle fill="none" cx="78.5" cy="0" r="0.1"/>
<circle fill="none" cx="105" cy="7.6" r="0.1"/>
<circle fill="none" cx="105" cy="15" r="0.1"/>
<circle fill="none" cx="105" cy="22.4" r="0.1"/>
<circle fill="none" cx="78.5" cy="30" r="0.1"/>
<circle fill="none" cx="52.5" cy="30" r="0.1"/>
<circle fill="none" cx="26.5" cy="30" r="0.1"/>
<circle fill="none" cx="0" cy="22.4" r="0.1"/>
<circle fill="none" cx="0" cy="15" r="0.1"/>
<circle fill="none" cx="0" cy="7.6" r="0.1"/>
<circle fill="none" cx="26.5" cy="0" r="0.1"/>
</g></g><rect stroke="none" stroke-width="0" fill="#FFFFFF" x="0" y="0" width="0" height="0" transform="translate(104.9,14.9)"/><path stroke="#000000" fill="none" d=""/><text font-family="OpenSansCondensedLight" font-size="14pt" fill="black" transform="translate(104.9,14.9)"/><rect stroke-width="0" fill="none" width="95.8" height="27.3" transform="translate(4.6,1.4)"/><text font-family="OpenSansCondensedLight" font-size="14pt" fill="black" transform="translate(4.6,1.4)" text-anchor="middle"><tspan x="47.9" y="19.9">SOFTWARE</tspan></text><path stroke="#000000" fill="none" transform="translate(4.6,1.4)" d="M 0 0"/></g><g transform="translate(352.8,114.2)"><g><g>
<path d="M105,0H0v30h105V0L105,0z" stroke="#000000" stroke-dasharray="none" fill="#FFFFFF"/>
<rect x="4.6" y="1.4" width="95.8" height="27.3" fill="none"/>
<circle fill="none" cx="52.5" cy="0" r="0.1"/>
<circle fill="none" cx="78.5" cy="0" r="0.1"/>
<circle fill="none" cx="105" cy="7.6" r="0.1"/>
<circle fill="none" cx="105" cy="15" r="0.1"/>
<circle fill="none" cx="105" cy="22.4" r="0.1"/>
<circle fill="none" cx="78.5" cy="30" r="0.1"/>
<circle fill="none" cx="52.5" cy="30" r="0.1"/>
<circle fill="none" cx="26.5" cy="30" r="0.1"/>
<circle fill="none" cx="0" cy="22.4" r="0.1"/>
<circle fill="none" cx="0" cy="15" r="0.1"/>
<circle fill="none" cx="0" cy="7.6" r="0.1"/>
<circle fill="none" cx="26.5" cy="0" r="0.1"/>
</g></g><rect stroke="none" stroke-width="0" fill="#FFFFFF" x="0" y="0" width="0" height="0" transform="translate(104.9,14.9)"/><path stroke="#000000" fill="none" d=""/><text font-family="OpenSansCondensedLight" font-size="14pt" fill="black" transform="translate(104.9,14.9)"/><rect stroke-width="0" fill="none" width="95.8" height="27.3" transform="translate(4.6,1.4)"/><text font-family="OpenSansCondensedLight" font-size="14pt" fill="black" transform="translate(4.6,1.4)" text-anchor="middle"><tspan x="47.9" y="19.9">OS</tspan></text><path stroke="#000000" fill="none" transform="translate(4.6,1.4)" d="M 0 0"/></g><g><path stroke="black" stroke-dasharray="none" d="M 405 257 413 310" fill="none"/><path fill="black" stroke="black" d="" transform="translate(405,257) scale(1,1) rotate(81.4)"/><path fill="black" stroke="black" d="" transform="translate(413,310) scale(1,1) rotate(-98.6)"/><g><g label-idx="0" cursor="move" transform="translate(409, 283.5)"><rect fill="white" rx="3" ry="3" x="0" y="0" width="0" height="0"/><text text-anchor="middle" font-size="14pt" font-family="OpenSansCondensedLight" y="0.8em" display="none" xml:space="preserve" transform="translate(0,0)"/></g></g></g></g><defs/></svg>