<svg xmlns="http://www.w3.org/2000/svg" xmlns:xlink="http://www.w3.org/1999/xlink" version="1.1" width="555" height="589.6" viewBox="59.9 109.4 555 589.6"><g><g transform="translate(75,405)"><g><g>
<g fill="#FFFFFF">
    <rect y="0" width="210" height="40.5"/>
</g>
<g stroke="#000000" stroke-dasharray="none">
    <line fill="none" stroke-linejoin="round" x1="210" y1="40.5" x2="2.4" y2="40.5"/>
</g>
<polygon points="9.7,36 11.3,36.8 3.3,40.5 11.3,44.2 9.7,45 0,40.5"/>
<rect x="8.2" y="1.6" fill="none" width="193.6" height="37.3"/>
<circle fill="none" cx="111.6" cy="40.5" r="0.1"/>
<circle fill="none" cx="146.9" cy="40.5" r="0.1"/>
<circle fill="none" cx="182.3" cy="40.4" r="0.1"/>
<circle fill="none" cx="199.8" cy="40.4" r="0.1"/>
<circle fill="none" cx="164.6" cy="40.5" r="0.1"/>
<circle fill="none" cx="129.2" cy="40.5" r="0.1"/>
<circle fill="none" cx="93.9" cy="40.5" r="0.1"/>
<circle fill="none" cx="58.7" cy="40.5" r="0.1"/>
<circle fill="none" cx="23.2" cy="40.5" r="0.1"/>
<circle fill="none" cx="5.5" cy="40.5" r="0.1"/>
<circle fill="none" cx="40.9" cy="40.5" r="0.1"/>
<circle fill="none" cx="76.2" cy="40.5" r="0.1"/>
</g></g><rect stroke="none" stroke-width="0" fill="#FFFFFF" x="0" y="0" width="0" height="0" transform="translate(129.1,40.4)"/><path stroke="#000000" fill="none" d=""/><text font-family="OpenSansCondensedLight" font-size="14pt" fill="black" transform="translate(129.1,40.4)"/><rect stroke-width="0" fill="none" width="193.6" height="37.3" transform="translate(8.2,1.6)"/><text font-family="OpenSansCondensedLight" font-size="14pt" fill="black" transform="translate(8.2,1.6)" text-anchor="middle"><tspan x="96.8" y="25"> </tspan></text><path stroke="#000000" fill="none" transform="translate(8.2,1.6)" d="M 0 0"/></g><g transform="translate(285,405)"><g><g>
<g fill="#FFFFFF">
    <rect y="0" width="270" height="40.5"/>
</g>
<g stroke="#000000" stroke-dasharray="none">
    <line fill="none" stroke-linejoin="round" x1="0" y1="40.5" x2="266.9" y2="40.5"/>
</g>
<g>
    <polygon points="257.5,45 255.5,44.2 265.8,40.5 255.5,36.8 257.5,36 270,40.5"/>
</g>
<rect x="10.6" y="1.6" fill="none" width="248.9" height="37.3"/>
<circle fill="none" cx="143.5" cy="40.5" r="0.1"/>
<circle fill="none" cx="188.9" cy="40.5" r="0.1"/>
<circle fill="none" cx="234.3" cy="40.4" r="0.1"/>
<circle fill="none" cx="256.9" cy="40.4" r="0.1"/>
<circle fill="none" cx="211.6" cy="40.5" r="0.1"/>
<circle fill="none" cx="166.2" cy="40.5" r="0.1"/>
<circle fill="none" cx="120.7" cy="40.5" r="0.1"/>
<circle fill="none" cx="75.4" cy="40.5" r="0.1"/>
<circle fill="none" cx="29.9" cy="40.5" r="0.1"/>
<circle fill="none" cx="7.1" cy="40.5" r="0.1"/>
<circle fill="none" cx="52.6" cy="40.5" r="0.1"/>
<circle fill="none" cx="98" cy="40.5" r="0.1"/>
</g></g><rect stroke="none" stroke-width="1" fill="#FFFFFF" x="0" y="0" width="40" height="20" transform="translate(25.3,82.3)"/><path stroke="#000000" fill="none" d="M75.4,40.5 C47.4,47.9 79.2,74.9 51.1 82.3"/><text font-family="OpenSansCondensedLight" font-size="14pt" fill="black" transform="translate(25.3,82.3)" text-anchor="middle"><tspan x="20" y="16.3">502</tspan></text><rect stroke-width="0" fill="none" width="248.9" height="37.3" transform="translate(10.6,1.6)"/><text font-family="OpenSansCondensedLight" font-size="14pt" fill="black" transform="translate(10.6,1.6)" text-anchor="middle"><tspan x="124.4" y="25"> </tspan></text><path stroke="#000000" fill="none" transform="translate(10.6,1.6)" d="M 0 0"/></g><g transform="translate(75,109.5)"><g><g>
<path d="M180,0H0v120h180V0L180,0z" stroke="#000000" stroke-dasharray="none" fill="#FFFFFF"/>
<rect x="7.9" y="5.5" width="164.3" height="109.1" fill="none"/>
<circle fill="none" cx="90" cy="0" r="0.1"/>
<circle fill="none" cx="134.6" cy="0" r="0.1"/>
<circle fill="none" cx="180" cy="30.3" r="0.1"/>
<circle fill="none" cx="180" cy="60" r="0.1"/>
<circle fill="none" cx="180" cy="89.7" r="0.1"/>
<circle fill="none" cx="134.6" cy="120" r="0.1"/>
<circle fill="none" cx="90" cy="120" r="0.1"/>
<circle fill="none" cx="45.4" cy="120" r="0.1"/>
<circle fill="none" cx="0" cy="89.7" r="0.1"/>
<circle fill="none" cx="0" cy="60" r="0.1"/>
<circle fill="none" cx="0" cy="30.3" r="0.1"/>
<circle fill="none" cx="45.4" cy="0" r="0.1"/>
</g></g><rect stroke="none" stroke-width="0" fill="#FFFFFF" x="0" y="0" width="0" height="0" transform="translate(179.9,59.9)"/><path stroke="#000000" fill="none" d=""/><text font-family="OpenSansCondensedLight" font-size="14pt" fill="black" transform="translate(179.9,59.9)"/><rect stroke-width="0" fill="none" width="164.3" height="109.1" transform="translate(7.9,5.5)"/><text font-family="OpenSansCondensedLight" font-size="14pt" fill="black" transform="translate(7.9,5.5)" text-anchor="middle"><tspan x="82.1" y="50.3">MAIN PROCESSOR</tspan><tspan x="82.1" y="71.3">604</tspan></text><path stroke="#000000" fill="none" transform="translate(7.9,5.5)" d="M 68.1 73 96.1 73"/></g><g transform="translate(75,229.5)"><g><g>
<path d="M60,0H0v60h60V0L60,0z" stroke="#000000" stroke-dasharray="none" fill="#FFFFFF"/>
<rect x="2.6" y="2.7" width="54.8" height="54.5" fill="none"/>
<circle fill="none" cx="30" cy="0" r="0.1"/>
<circle fill="none" cx="44.9" cy="0" r="0.1"/>
<circle fill="none" cx="60" cy="15.1" r="0.1"/>
<circle fill="none" cx="60" cy="30" r="0.1"/>
<circle fill="none" cx="60" cy="44.9" r="0.1"/>
<circle fill="none" cx="44.9" cy="60" r="0.1"/>
<circle fill="none" cx="30" cy="60" r="0.1"/>
<circle fill="none" cx="15.1" cy="60" r="0.1"/>
<circle fill="none" cx="0" cy="44.9" r="0.1"/>
<circle fill="none" cx="0" cy="30" r="0.1"/>
<circle fill="none" cx="0" cy="15.1" r="0.1"/>
<circle fill="none" cx="15.1" cy="0" r="0.1"/>
</g></g><rect stroke="none" stroke-width="0" fill="#FFFFFF" x="0" y="0" width="0" height="0" transform="translate(59.9,29.9)"/><path stroke="#000000" fill="none" d=""/><text font-family="OpenSansCondensedLight" font-size="14pt" fill="black" transform="translate(59.9,29.9)"/><rect stroke-width="0" fill="none" width="54.8" height="54.5" transform="translate(2.6,2.7)"/><text font-family="OpenSansCondensedLight" font-size="14pt" fill="black" transform="translate(2.6,2.7)" text-anchor="middle"><tspan x="27.4" y="23.1">I/O</tspan><tspan x="27.4" y="44.1">PORT</tspan></text><path stroke="#000000" fill="none" transform="translate(2.6,2.7)" d="M 0 0"/></g><g transform="translate(135,229.5)"><g><g>
<path d="M60,0H0v60h60V0L60,0z" stroke="#000000" stroke-dasharray="none" fill="#FFFFFF"/>
<rect x="2.6" y="2.7" width="54.8" height="54.5" fill="none"/>
<circle fill="none" cx="30" cy="0" r="0.1"/>
<circle fill="none" cx="44.9" cy="0" r="0.1"/>
<circle fill="none" cx="60" cy="15.1" r="0.1"/>
<circle fill="none" cx="60" cy="30" r="0.1"/>
<circle fill="none" cx="60" cy="44.9" r="0.1"/>
<circle fill="none" cx="44.9" cy="60" r="0.1"/>
<circle fill="none" cx="30" cy="60" r="0.1"/>
<circle fill="none" cx="15.1" cy="60" r="0.1"/>
<circle fill="none" cx="0" cy="44.9" r="0.1"/>
<circle fill="none" cx="0" cy="30" r="0.1"/>
<circle fill="none" cx="0" cy="15.1" r="0.1"/>
<circle fill="none" cx="15.1" cy="0" r="0.1"/>
</g></g><rect stroke="none" stroke-width="0" fill="#FFFFFF" x="0" y="0" width="0" height="0" transform="translate(59.9,29.9)"/><path stroke="#000000" fill="none" d=""/><text font-family="OpenSansCondensedLight" font-size="14pt" fill="black" transform="translate(59.9,29.9)"/><rect stroke-width="0" fill="none" width="54.8" height="54.5" transform="translate(2.6,2.7)"/><text font-family="OpenSansCondensedLight" font-size="14pt" fill="black" transform="translate(2.6,2.7)" text-anchor="middle"><tspan x="27.4" y="23.1">I/O</tspan><tspan x="27.4" y="44.1">PORT</tspan></text><path stroke="#000000" fill="none" transform="translate(2.6,2.7)" d="M 0 0"/></g><g transform="translate(195,229.5)"><g><g>
<path d="M60,0H0v60h60V0L60,0z" stroke="#000000" stroke-dasharray="none" fill="#FFFFFF"/>
<rect x="2.6" y="2.7" width="54.8" height="54.5" fill="none"/>
<circle fill="none" cx="30" cy="0" r="0.1"/>
<circle fill="none" cx="44.9" cy="0" r="0.1"/>
<circle fill="none" cx="60" cy="15.1" r="0.1"/>
<circle fill="none" cx="60" cy="30" r="0.1"/>
<circle fill="none" cx="60" cy="44.9" r="0.1"/>
<circle fill="none" cx="44.9" cy="60" r="0.1"/>
<circle fill="none" cx="30" cy="60" r="0.1"/>
<circle fill="none" cx="15.1" cy="60" r="0.1"/>
<circle fill="none" cx="0" cy="44.9" r="0.1"/>
<circle fill="none" cx="0" cy="30" r="0.1"/>
<circle fill="none" cx="0" cy="15.1" r="0.1"/>
<circle fill="none" cx="15.1" cy="0" r="0.1"/>
</g></g><rect stroke="none" stroke-width="1" fill="#FFFFFF" x="0" y="0" width="40" height="20" transform="translate(99.9,19.9)"/><path stroke="#000000" fill="none" d="M60,30 C77,46.9 82.9,13 99.9 29.9"/><text font-family="OpenSansCondensedLight" font-size="14pt" fill="black" transform="translate(99.9,19.9)" text-anchor="middle"><tspan x="20" y="16.3">606</tspan></text><rect stroke-width="0" fill="none" width="54.8" height="54.5" transform="translate(2.6,2.7)"/><text font-family="OpenSansCondensedLight" font-size="14pt" fill="black" transform="translate(2.6,2.7)" text-anchor="middle"><tspan x="27.4" y="23.1">Memory</tspan><tspan x="27.4" y="44.1">Port</tspan></text><path stroke="#000000" fill="none" transform="translate(2.6,2.7)" d="M 0 0"/></g><g transform="translate(345,132)"><g><g>
<path d="M105,0H0v75h105V0L105,0z" stroke="#000000" stroke-dasharray="none" fill="#FFFFFF"/>
<rect x="4.6" y="3.4" width="95.8" height="68.2" fill="none"/>
<circle fill="none" cx="52.5" cy="0" r="0.1"/>
<circle fill="none" cx="78.5" cy="0" r="0.1"/>
<circle fill="none" cx="105" cy="18.9" r="0.1"/>
<circle fill="none" cx="105" cy="37.5" r="0.1"/>
<circle fill="none" cx="105" cy="56.1" r="0.1"/>
<circle fill="none" cx="78.5" cy="75" r="0.1"/>
<circle fill="none" cx="52.5" cy="75" r="0.1"/>
<circle fill="none" cx="26.5" cy="75" r="0.1"/>
<circle fill="none" cx="0" cy="56.1" r="0.1"/>
<circle fill="none" cx="0" cy="37.5" r="0.1"/>
<circle fill="none" cx="0" cy="18.9" r="0.1"/>
<circle fill="none" cx="26.5" cy="0" r="0.1"/>
</g></g><rect stroke="none" stroke-width="0" fill="#FFFFFF" x="0" y="0" width="0" height="0" transform="translate(104.9,37.4)"/><path stroke="#000000" fill="none" d=""/><text font-family="OpenSansCondensedLight" font-size="14pt" fill="black" transform="translate(104.9,37.4)"/><rect stroke-width="0" fill="none" width="95.8" height="68.2" transform="translate(4.6,3.4)"/><text font-family="OpenSansCondensedLight" font-size="14pt" fill="black" transform="translate(4.6,3.4)" text-anchor="middle"><tspan x="47.9" y="29.9">CACHE</tspan><tspan x="47.9" y="50.9">602</tspan></text><path stroke="#000000" fill="none" transform="translate(4.6,3.4)" d="M 33.9 53 61.9 53"/></g><g><path stroke="black" stroke-dasharray="none" d="M 345 169 255 169" fill="none"/><path fill="black" stroke="black" d="" transform="translate(345,169) scale(1,1) rotate(-180)"/><path fill="black" stroke="black" d="" transform="translate(255,169) scale(1,1) rotate(0)"/><g><g label-idx="0" cursor="move" transform="translate(300, 169)"><rect fill="white" rx="3" ry="3" x="0" y="0" width="0" height="0"/><text text-anchor="middle" font-size="14pt" font-family="OpenSansCondensedLight" y="0.8em" display="none" xml:space="preserve" transform="translate(0,0)"/></g></g></g><g transform="translate(60,340.5)"><g><g>
<path d="M90.1,0H0v36h90.1V0L90.1,0z" stroke="#000000" stroke-dasharray="none" fill="#FFFFFF"/>
<rect x="3.9" y="1.6" width="82.2" height="32.8" fill="none"/>
<circle fill="none" cx="45" cy="0" r="0.1"/>
<circle fill="none" cx="67.4" cy="0" r="0.1"/>
<circle fill="none" cx="90.1" cy="9.1" r="0.1"/>
<circle fill="none" cx="90.1" cy="18" r="0.1"/>
<circle fill="none" cx="90.1" cy="26.9" r="0.1"/>
<circle fill="none" cx="67.4" cy="36" r="0.1"/>
<circle fill="none" cx="45" cy="36" r="0.1"/>
<circle fill="none" cx="22.7" cy="36" r="0.1"/>
<circle fill="none" cx="0" cy="26.9" r="0.1"/>
<circle fill="none" cx="0" cy="18" r="0.1"/>
<circle fill="none" cx="0" cy="9.1" r="0.1"/>
<circle fill="none" cx="22.7" cy="0" r="0.1"/>
</g></g><rect stroke="none" stroke-width="1" fill="#FFFFFF" x="0" y="0" width="40" height="20" transform="translate(130,7.9)"/><path stroke="#000000" fill="none" d="M90.1,18 C107,34.9 113,1.1 130 18"/><text font-family="OpenSansCondensedLight" font-size="14pt" fill="black" transform="translate(130,7.9)" text-anchor="middle"><tspan x="20" y="16.3">608</tspan></text><rect stroke-width="0" fill="none" width="82.2" height="32.8" transform="translate(3.9,1.6)"/><text font-family="OpenSansCondensedLight" font-size="14pt" fill="black" transform="translate(3.9,1.6)" text-anchor="middle"><tspan x="41.1" y="22.7">BRIDGE</tspan></text><path stroke="#000000" fill="none" transform="translate(3.9,1.6)" d="M 0 0"/></g><g><path stroke="black" stroke-dasharray="none" d="M 105 341 105 289" fill="none"/><path fill="black" stroke="black" d="" transform="translate(105,341) scale(1,1) rotate(-90)"/><path fill="black" stroke="black" d="" transform="translate(105,289) scale(1,1) rotate(-270)"/><g><g label-idx="0" cursor="move" transform="translate(105, 315)"><rect fill="white" rx="3" ry="3" x="0" y="0" width="0" height="0"/><text text-anchor="middle" font-size="14pt" font-family="OpenSansCondensedLight" y="0.8em" display="none" xml:space="preserve" transform="translate(0,0)"/></g></g></g><g transform="translate(435,300)"><g><g>
<path d="M109.5,0H0v54h109.5V0L109.5,0z" stroke="#000000" stroke-dasharray="none" fill="#FFFFFF"/>
<rect x="4.8" y="2.5" width="99.9" height="49.1" fill="none"/>
<circle fill="none" cx="54.7" cy="0" r="0.1"/>
<circle fill="none" cx="81.9" cy="0" r="0.1"/>
<circle fill="none" cx="109.5" cy="13.6" r="0.1"/>
<circle fill="none" cx="109.5" cy="27" r="0.1"/>
<circle fill="none" cx="109.5" cy="40.4" r="0.1"/>
<circle fill="none" cx="81.9" cy="54" r="0.1"/>
<circle fill="none" cx="54.7" cy="54" r="0.1"/>
<circle fill="none" cx="27.6" cy="54" r="0.1"/>
<circle fill="none" cx="0" cy="40.4" r="0.1"/>
<circle fill="none" cx="0" cy="27" r="0.1"/>
<circle fill="none" cx="0" cy="13.6" r="0.1"/>
<circle fill="none" cx="27.6" cy="0" r="0.1"/>
</g></g><rect stroke="none" stroke-width="0" fill="#FFFFFF" x="0" y="0" width="0" height="0" transform="translate(109.4,26.9)"/><path stroke="#000000" fill="none" d=""/><text font-family="OpenSansCondensedLight" font-size="14pt" fill="black" transform="translate(109.4,26.9)"/><rect stroke-width="0" fill="none" width="99.9" height="49.1" transform="translate(4.8,2.5)"/><text font-family="OpenSansCondensedLight" font-size="14pt" fill="black" transform="translate(4.8,2.5)" text-anchor="middle"><tspan x="50" y="20.3">I/O DEVICE</tspan><tspan x="50" y="41.3">610</tspan></text><path stroke="#000000" fill="none" transform="translate(4.8,2.5)" d="M 36 43 64 43"/></g><g><path stroke="black" stroke-dasharray="none" d="M 435 330 165 330 165 289" fill="none"/><path fill="black" stroke="black" d="" transform="translate(435,330) scale(1,1) rotate(-180)"/><path fill="black" stroke="black" d="" transform="translate(165,289) scale(1,1) rotate(-270)"/><g><g label-idx="0" cursor="move" transform="translate(279.5, 330)"><rect fill="white" rx="3" ry="3" x="0" y="0" width="0" height="0"/><text text-anchor="middle" font-size="14pt" font-family="OpenSansCondensedLight" y="0.8em" display="none" xml:space="preserve" transform="translate(0,0)"/></g></g></g><g transform="translate(345,235.8)"><g><g>
<path d="M105.1,0H0v47.4h105.1V0L105.1,0z" stroke="#000000" stroke-dasharray="none" fill="#FFFFFF"/>
<rect x="4.6" y="2.2" width="95.9" height="43.1" fill="none"/>
<circle fill="none" cx="52.5" cy="0" r="0.1"/>
<circle fill="none" cx="78.6" cy="0" r="0.1"/>
<circle fill="none" cx="105.1" cy="12" r="0.1"/>
<circle fill="none" cx="105.1" cy="23.7" r="0.1"/>
<circle fill="none" cx="105.1" cy="35.5" r="0.1"/>
<circle fill="none" cx="78.6" cy="47.4" r="0.1"/>
<circle fill="none" cx="52.5" cy="47.4" r="0.1"/>
<circle fill="none" cx="26.5" cy="47.4" r="0.1"/>
<circle fill="none" cx="0" cy="35.5" r="0.1"/>
<circle fill="none" cx="0" cy="23.7" r="0.1"/>
<circle fill="none" cx="0" cy="12" r="0.1"/>
<circle fill="none" cx="26.5" cy="0" r="0.1"/>
</g></g><rect stroke="none" stroke-width="0" fill="#FFFFFF" x="0" y="0" width="0" height="0" transform="translate(105,23.6)"/><path stroke="#000000" fill="none" d=""/><text font-family="OpenSansCondensedLight" font-size="14pt" fill="black" transform="translate(105,23.6)"/><rect stroke-width="0" fill="none" width="95.9" height="43.1" transform="translate(4.6,2.2)"/><text font-family="OpenSansCondensedLight" font-size="14pt" fill="black" transform="translate(4.6,2.2)" text-anchor="middle"><tspan x="48" y="6.8">MAIN</tspan><tspan x="48" y="27.8">MEMORY</tspan><tspan x="48" y="48.8">504</tspan></text><path stroke="#000000" fill="none" transform="translate(4.6,2.2)" d="M 34 51 61.9 51"/></g><g><path stroke="black" stroke-dasharray="none" d="M 345 259 255 259" fill="none"/><path fill="black" stroke="black" d="" transform="translate(345,259) scale(1,1) rotate(-180)"/><path fill="black" stroke="black" d="" transform="translate(255,259) scale(1,1) rotate(0)"/><g><g label-idx="0" cursor="move" transform="translate(300, 259)"><rect fill="white" rx="3" ry="3" x="0" y="0" width="0" height="0"/><text text-anchor="middle" font-size="14pt" font-family="OpenSansCondensedLight" y="0.8em" display="none" xml:space="preserve" transform="translate(0,0)"/></g></g></g><g transform="translate(117.8,529.5)"><g><g>
<path d="M124.4,0H0v60h124.4V0L124.4,0z" stroke="#000000" stroke-dasharray="none" fill="#FFFFFF"/>
<rect x="5.4" y="2.7" width="113.6" height="54.5" fill="none"/>
<circle fill="none" cx="62.2" cy="0" r="0.1"/>
<circle fill="none" cx="93.1" cy="0" r="0.1"/>
<circle fill="none" cx="124.4" cy="15.1" r="0.1"/>
<circle fill="none" cx="124.4" cy="30" r="0.1"/>
<circle fill="none" cx="124.4" cy="44.9" r="0.1"/>
<circle fill="none" cx="93.1" cy="60" r="0.1"/>
<circle fill="none" cx="62.2" cy="60" r="0.1"/>
<circle fill="none" cx="31.4" cy="60" r="0.1"/>
<circle fill="none" cx="0" cy="44.9" r="0.1"/>
<circle fill="none" cx="0" cy="30" r="0.1"/>
<circle fill="none" cx="0" cy="15.1" r="0.1"/>
<circle fill="none" cx="31.4" cy="0" r="0.1"/>
</g></g><rect stroke="none" stroke-width="1" fill="#FFFFFF" x="0" y="0" width="40" height="20" transform="translate(164.3,19.9)"/><path stroke="#000000" fill="none" d="M124.4,30 C141.4,46.9 147.4,13 164.3 29.9"/><text font-family="OpenSansCondensedLight" font-size="14pt" fill="black" transform="translate(164.3,19.9)" text-anchor="middle"><tspan x="20" y="16.3">612</tspan></text><rect stroke-width="0" fill="none" width="113.6" height="54.5" transform="translate(5.4,2.7)"/><text font-family="OpenSansCondensedLight" font-size="14pt" fill="black" transform="translate(5.4,2.7)" text-anchor="middle"><tspan x="56.8" y="33.6">I/O DEVICE</tspan></text><path stroke="#000000" fill="none" transform="translate(5.4,2.7)" d="M 0 0"/></g><g><path stroke="black" stroke-dasharray="none" d="M 180 529 187 445" fill="none"/><path fill="black" stroke="black" d="" transform="translate(180,529) scale(1,1) rotate(-85.2)"/><path fill="black" stroke="black" d="" transform="translate(187,445) scale(1,1) rotate(-265.2)"/><g><g label-idx="0" cursor="move" transform="translate(183.5, 487)"><rect fill="white" rx="3" ry="3" x="0" y="0" width="0" height="0"/><text text-anchor="middle" font-size="14pt" font-family="OpenSansCondensedLight" y="0.8em" display="none" xml:space="preserve" transform="translate(0,0)"/></g></g></g><g><path stroke="black" stroke-dasharray="none" d="M 105 377 116 445" fill="none"/><path fill="black" stroke="black" d="" transform="translate(105,377) scale(1,1) rotate(80.8)"/><path fill="black" stroke="black" d="" transform="translate(116,445) scale(1,1) rotate(-99.2)"/><g><g label-idx="0" cursor="move" transform="translate(110.5, 411)"><rect fill="white" rx="3" ry="3" x="0" y="0" width="0" height="0"/><text text-anchor="middle" font-size="14pt" font-family="OpenSansCondensedLight" y="0.8em" display="none" xml:space="preserve" transform="translate(0,0)"/></g></g></g></g><defs/></svg>